<?xml version="1.0" encoding="utf-8"?>
<!-- Generator: Adobe Illustrator 25.2.0, SVG Export Plug-In . SVG Version: 6.00 Build 0)  -->
<svg version="1.1" id="Layer_1" xmlns="http://www.w3.org/2000/svg" xmlns:xlink="http://www.w3.org/1999/xlink" x="0px" y="0px"
	 viewBox="0 0 228 70" style="enable-background:new 0 0 228 70;" xml:space="preserve">
<style type="text/css">
	.st0{fill:#00A551;}
	.st1{fill:url(#SVGID_1_);}
	.st2{fill:url(#SVGID_2_);}
	.st3{fill:url(#SVGID_3_);}
	.st4{fill:url(#SVGID_4_);}
	.st5{fill:url(#SVGID_5_);}
	.st6{fill:url(#SVGID_6_);}
	.st7{fill:url(#SVGID_7_);}
	.st8{fill:url(#SVGID_8_);}
</style>
<g>
	<g>
		<g>
			<g>
				<path class="st0" d="M2.7,23.13c0-8.36,6.78-15.14,15.14-15.14c8.42,0,15.2,6.78,15.2,15.14v15.14h-15.2
					C9.48,38.27,2.7,31.49,2.7,23.13z M29.14,23.13c0-6.22-5.09-11.24-11.3-11.24c-6.22,0-11.24,5.02-11.24,11.24
					c0,6.22,5.02,11.3,11.24,11.3h11.3V23.13z"/>
			</g>
		</g>
		<g>
			<g>
				<linearGradient id="SVGID_1_" gradientUnits="userSpaceOnUse" x1="10.7912" y1="28.6317" x2="24.9388" y2="28.6317">
					<stop  offset="0" style="stop-color:#0099D4"/>
					<stop  offset="1" style="stop-color:#006FA8"/>
				</linearGradient>
				<path class="st1" d="M23.75,29.46H11.98c-0.39,0-0.68-0.08-0.89-0.23c-0.2-0.15-0.3-0.35-0.3-0.59c0-0.25,0.1-0.45,0.29-0.6
					c0.2-0.15,0.49-0.23,0.89-0.23h11.77c0.4,0,0.7,0.08,0.89,0.23c0.2,0.15,0.29,0.35,0.29,0.6c0,0.24-0.1,0.44-0.29,0.59
					C24.45,29.38,24.16,29.46,23.75,29.46z"/>
			</g>
			<g>
				<linearGradient id="SVGID_2_" gradientUnits="userSpaceOnUse" x1="12.108" y1="25.9974" x2="23.622" y2="25.9974">
					<stop  offset="0" style="stop-color:#0099D4"/>
					<stop  offset="1" style="stop-color:#006FA8"/>
				</linearGradient>
				<path class="st2" d="M22.43,26.82H13.3c-0.39,0-0.68-0.08-0.89-0.23c-0.2-0.15-0.3-0.35-0.3-0.59c0-0.24,0.1-0.45,0.29-0.6
					c0.2-0.15,0.5-0.23,0.89-0.23h9.14c0.4,0,0.7,0.08,0.89,0.23c0.2,0.15,0.29,0.35,0.29,0.6c0,0.24-0.1,0.44-0.29,0.59
					C23.14,26.75,22.84,26.82,22.43,26.82z"/>
			</g>
			<linearGradient id="SVGID_3_" gradientUnits="userSpaceOnUse" x1="9.7658" y1="19.8742" x2="25.9657" y2="19.8742">
				<stop  offset="0" style="stop-color:#0099D4"/>
				<stop  offset="1" style="stop-color:#006FA8"/>
			</linearGradient>
			<path class="st3" d="M13.26,22.94v-2.04l-3.49-0.86l7.57-3.23l8.63,3.06l-3.62,1.48c-1.78-1.05-4.22-1.05-5.2-0.92
				c1.62,0.06,4.81,0.67,4.81,1.38c0,0.59,0.07,1.12,0.07,1.12C19.24,21.87,15.17,21.95,13.26,22.94z"/>
		</g>
	</g>
	<path class="st0" d="M41.43,21.85c2.23-2.69,4.36-4.04,6.39-4.04c1.04,0,1.94,0.26,2.68,0.78c0.75,0.52,1.35,1.38,1.79,2.57
		c0.31,0.83,0.46,2.11,0.46,3.83v8.13c0,1.21,0.1,2.02,0.29,2.45c0.15,0.35,0.4,0.62,0.74,0.81c0.34,0.19,0.97,0.29,1.88,0.29v0.75
		h-9.42v-0.75h0.4c0.89,0,1.51-0.14,1.86-0.4c0.35-0.27,0.6-0.67,0.74-1.2c0.06-0.21,0.08-0.86,0.08-1.96v-7.8
		c0-1.73-0.22-2.99-0.68-3.78c-0.45-0.78-1.21-1.18-2.28-1.18c-1.65,0-3.29,0.9-4.93,2.7v10.05c0,1.29,0.08,2.09,0.23,2.39
		c0.19,0.4,0.46,0.7,0.8,0.88c0.34,0.19,1.03,0.28,2.07,0.28v0.75h-9.42v-0.75h0.42c0.97,0,1.63-0.25,1.97-0.74
		c0.34-0.49,0.51-1.43,0.51-2.82v-7.07c0-2.29-0.05-3.68-0.15-4.18c-0.1-0.5-0.26-0.84-0.48-1.02c-0.22-0.18-0.5-0.27-0.86-0.27
		c-0.39,0-0.85,0.1-1.39,0.31l-0.31-0.75l5.74-2.33h0.89V21.85z"/>
	<path class="st0" d="M56.1,18.38h8.88v0.77h-0.44c-0.62,0-1.09,0.13-1.4,0.41c-0.31,0.27-0.47,0.61-0.47,1.01
		c0,0.54,0.23,1.29,0.69,2.25L68,32.42l4.27-10.53c0.24-0.57,0.35-1.13,0.35-1.69c0-0.25-0.05-0.44-0.14-0.56
		c-0.11-0.15-0.29-0.27-0.52-0.36c-0.24-0.09-0.65-0.13-1.25-0.13v-0.77h6.2v0.77c-0.51,0.06-0.91,0.17-1.18,0.33
		c-0.28,0.17-0.58,0.48-0.92,0.94c-0.12,0.19-0.36,0.73-0.71,1.6l-7.76,19.02c-0.75,1.84-1.73,3.24-2.94,4.18
		c-1.21,0.94-2.38,1.41-3.51,1.41c-0.82,0-1.49-0.24-2.02-0.71c-0.53-0.47-0.79-1.01-0.79-1.62c0-0.58,0.19-1.05,0.57-1.4
		c0.38-0.36,0.9-0.53,1.57-0.53c0.46,0,1.08,0.15,1.87,0.46c0.55,0.21,0.9,0.31,1.04,0.31c0.42,0,0.87-0.21,1.36-0.64
		c0.49-0.43,0.99-1.26,1.49-2.5l1.35-3.31l-6.84-14.38c-0.21-0.43-0.54-0.96-1-1.6c-0.35-0.49-0.63-0.81-0.85-0.98
		c-0.32-0.22-0.83-0.42-1.54-0.58V18.38z"/>
	<linearGradient id="SVGID_4_" gradientUnits="userSpaceOnUse" x1="90.9975" y1="9.002" x2="90.9975" y2="41.2503">
		<stop  offset="0" style="stop-color:#0099D4"/>
		<stop  offset="1" style="stop-color:#006FA8"/>
	</linearGradient>
	<path class="st4" d="M104.05,27.53l-1.06,9.9H77.94v-0.77h0.94c0.82,0,1.48-0.15,1.97-0.44c0.36-0.19,0.64-0.53,0.83-1
		c0.15-0.33,0.23-1.21,0.23-2.62V14.05c0-1.44-0.08-2.34-0.23-2.7c-0.15-0.36-0.46-0.68-0.92-0.95c-0.47-0.27-1.09-0.41-1.88-0.41
		h-0.94V9.22h15.04v0.77h-1.23c-0.82,0-1.48,0.15-1.98,0.44c-0.36,0.19-0.65,0.53-0.85,1c-0.15,0.33-0.23,1.21-0.23,2.62v17.98
		c0,1.44,0.08,2.36,0.25,2.76c0.17,0.39,0.49,0.69,0.98,0.88c0.35,0.12,1.19,0.19,2.52,0.19h2.35c1.5,0,2.75-0.26,3.74-0.79
		c1-0.53,1.86-1.36,2.59-2.5c0.73-1.14,1.42-2.82,2.07-5.03H104.05z"/>
	<linearGradient id="SVGID_5_" gradientUnits="userSpaceOnUse" x1="119.2507" y1="9.002" x2="119.2507" y2="41.2503">
		<stop  offset="0" style="stop-color:#0099D4"/>
		<stop  offset="1" style="stop-color:#006FA8"/>
	</linearGradient>
	<path class="st5" d="M117.18,10.85v11.48h0.56c1.79,0,3.08-0.56,3.89-1.69c0.8-1.12,1.32-2.78,1.54-4.97h0.79v14.77h-0.79
		c-0.17-1.61-0.52-2.93-1.05-3.95c-0.54-1.03-1.16-1.72-1.86-2.07c-0.71-0.36-1.73-0.53-3.08-0.53v7.95c0,1.55,0.07,2.5,0.2,2.85
		c0.13,0.35,0.38,0.63,0.74,0.85c0.36,0.22,0.94,0.33,1.75,0.33h1.68c2.64,0,4.75-0.61,6.34-1.83c1.59-1.22,2.73-3.08,3.42-5.58
		h0.77l-1.27,8.97h-24.38v-0.77h0.93c0.82,0,1.48-0.15,1.98-0.44c0.36-0.19,0.64-0.53,0.83-1c0.15-0.33,0.23-1.21,0.23-2.62V14.05
		c0-1.28-0.03-2.06-0.1-2.35c-0.14-0.49-0.4-0.86-0.77-1.12c-0.53-0.39-1.25-0.58-2.16-0.58h-0.93V9.22h23.61v8.34h-0.79
		c-0.4-2.04-0.97-3.5-1.69-4.39c-0.73-0.89-1.76-1.54-3.09-1.96c-0.78-0.25-2.23-0.37-4.37-0.37H117.18z"/>
	<linearGradient id="SVGID_6_" gradientUnits="userSpaceOnUse" x1="149.3027" y1="9.002" x2="149.3027" y2="41.2504">
		<stop  offset="0" style="stop-color:#0099D4"/>
		<stop  offset="1" style="stop-color:#006FA8"/>
	</linearGradient>
	<path class="st6" d="M151.72,29.4h-9.96l-1.19,2.75c-0.39,0.92-0.58,1.67-0.58,2.27c0,0.79,0.32,1.37,0.96,1.75
		c0.37,0.22,1.3,0.39,2.77,0.5v0.77h-9.38v-0.77c1.01-0.15,1.84-0.57,2.5-1.26c0.65-0.69,1.46-2.11,2.41-4.26l10.09-22.51h0.39
		l10.18,23.13c0.97,2.19,1.77,3.57,2.39,4.14c0.47,0.43,1.14,0.68,2,0.75v0.77h-13.65v-0.77h0.56c1.1,0,1.86-0.15,2.31-0.46
		c0.31-0.22,0.46-0.54,0.46-0.96c0-0.25-0.04-0.51-0.12-0.77c-0.03-0.12-0.24-0.64-0.62-1.56L151.72,29.4z M151.01,27.86l-4.2-9.72
		l-4.33,9.72H151.01z"/>
	<linearGradient id="SVGID_7_" gradientUnits="userSpaceOnUse" x1="180.7292" y1="9.002" x2="180.7292" y2="41.2503">
		<stop  offset="0" style="stop-color:#0099D4"/>
		<stop  offset="1" style="stop-color:#006FA8"/>
	</linearGradient>
	<path class="st7" d="M176.08,24.58v7.91c0,1.53,0.09,2.49,0.28,2.88c0.19,0.39,0.52,0.71,0.99,0.95c0.47,0.24,1.35,0.35,2.64,0.35
		v0.77h-14.44v-0.77c1.3,0,2.19-0.12,2.65-0.36c0.47-0.24,0.79-0.56,0.98-0.95c0.19-0.39,0.28-1.35,0.28-2.87V14.17
		c0-1.53-0.09-2.49-0.28-2.88c-0.19-0.39-0.52-0.71-0.99-0.95c-0.47-0.24-1.35-0.35-2.64-0.35V9.22h13.11
		c3.41,0,5.91,0.24,7.49,0.71c1.58,0.47,2.87,1.34,3.87,2.61c1,1.27,1.5,2.76,1.5,4.46c0,2.08-0.75,3.8-2.25,5.16
		c-0.96,0.86-2.3,1.5-4.02,1.93l6.78,9.55c0.89,1.23,1.52,2,1.89,2.31c0.57,0.43,1.23,0.67,1.97,0.71v0.77h-8.88l-9.09-12.86H176.08
		z M176.08,10.74V23.1h1.18c1.93,0,3.37-0.18,4.33-0.53c0.96-0.35,1.71-0.99,2.26-1.91c0.55-0.92,0.82-2.12,0.82-3.61
		c0-2.15-0.5-3.74-1.51-4.76c-1.01-1.03-2.63-1.54-4.86-1.54H176.08z"/>
	<linearGradient id="SVGID_8_" gradientUnits="userSpaceOnUse" x1="210.7203" y1="9.002" x2="210.7203" y2="41.2503">
		<stop  offset="0" style="stop-color:#0099D4"/>
		<stop  offset="1" style="stop-color:#006FA8"/>
	</linearGradient>
	<path class="st8" d="M206.14,9.22l13.92,17.5V14.59c0-1.69-0.24-2.84-0.73-3.43c-0.67-0.8-1.78-1.19-3.35-1.16V9.22h9.32v0.77
		c-1.19,0.15-1.99,0.35-2.4,0.59c-0.41,0.24-0.73,0.64-0.96,1.19c-0.23,0.55-0.34,1.49-0.34,2.82v23.49h-0.71l-19.08-23.49v17.93
		c0,1.62,0.37,2.72,1.11,3.29c0.74,0.57,1.59,0.85,2.55,0.85h0.67v0.77h-10.01v-0.77c1.55-0.01,2.64-0.33,3.25-0.96
		c0.61-0.62,0.92-1.69,0.92-3.18V12.61l-0.61-0.75c-0.6-0.75-1.12-1.24-1.58-1.48c-0.46-0.24-1.12-0.37-1.98-0.4V9.22H206.14z"/>
	<g>
		<path class="st0" d="M108.6,44.13c0,0.96-0.56,1.84-1.67,2.64c-0.71,0.48-1.17,0.73-1.38,0.73c-0.08,0-0.13-0.03-0.14-0.1
			c0-0.11,0.1-0.2,0.29-0.27c0.69-0.32,1.24-0.74,1.67-1.26c0.43-0.52,0.64-1.06,0.64-1.61c0-0.52-0.17-0.95-0.5-1.28
			c-0.34-0.33-0.78-0.49-1.33-0.49c-0.47,0-0.95,0.09-1.43,0.28c-0.48,0.18-0.96,0.46-1.43,0.82c-0.29,0.24-0.56,0.49-0.82,0.75
			c-0.26,0.27-0.46,0.54-0.63,0.81c-0.2,0.3-0.43,0.75-0.71,1.33c-0.28,0.58-0.61,1.33-1.01,2.23c-0.95,2.18-1.93,3.78-2.93,4.79
			c-0.48,0.46-1.02,0.85-1.59,1.16c-0.58,0.31-1.24,0.56-2,0.75c0.75,0.08,1.35,0.12,1.79,0.12c0.83,0,1.51-0.12,2.04-0.36
			c0.28-0.14,0.57-0.32,0.87-0.55c0.31-0.23,0.59-0.49,0.86-0.8c0.24-0.27,0.46-0.54,0.69-0.82c0.22-0.28,0.41-0.54,0.55-0.79
			c0.06-0.13,0.13-0.19,0.21-0.19c0.09,0,0.14,0.05,0.14,0.15c0,0.15-0.34,0.63-1.03,1.44c-0.33,0.4-0.67,0.75-1.03,1.06
			c-0.36,0.31-0.69,0.54-0.99,0.69c-0.29,0.15-0.64,0.28-1.04,0.36c-0.41,0.09-0.84,0.13-1.31,0.13c-0.65,0-1.52-0.08-2.6-0.24
			c-0.6,0.11-1.05,0.16-1.35,0.16c-0.48,0-0.72-0.12-0.72-0.35s0.22-0.35,0.66-0.35c0.17,0,0.6,0.06,1.3,0.19
			c0.03,0,0.06,0.01,0.11,0.02c0.04,0.01,0.09,0.02,0.13,0.02c0.42-0.11,0.83-0.27,1.21-0.49c0.38-0.22,0.69-0.48,0.94-0.79
			c0.28-0.33,0.61-0.83,1.01-1.49c0.4-0.66,0.86-1.51,1.38-2.54c0-0.01,0.01-0.04,0.02-0.07c0.02-0.03,0.04-0.06,0.05-0.1
			c0.01-0.04,0.04-0.09,0.08-0.16h-3.23c-0.6,1.21-1.2,2.14-1.77,2.8c-0.59,0.68-1.38,1.29-2.37,1.83c-0.91,0.5-1.81,0.89-2.69,1.15
			c-0.88,0.26-1.75,0.39-2.6,0.39c-1.3,0-2.37-0.37-3.2-1.11c-0.83-0.72-1.24-1.68-1.24-2.89c0-0.54,0.09-1.09,0.28-1.64
			c0.18-0.56,0.44-1.1,0.75-1.62c0.34-0.52,0.75-1.02,1.23-1.5c0.49-0.47,1.02-0.9,1.6-1.27c0.26-1.27,1.05-2.43,2.35-3.47
			c1.3-1.05,2.65-1.57,4.07-1.57c0.69,0,1.24,0.19,1.65,0.58c0.41,0.39,0.62,0.9,0.62,1.53c0,0.44-0.18,1.04-0.55,1.79
			c-0.15,0.38-0.23,0.63-0.23,0.77c0,0.47,0.27,0.71,0.81,0.71c0.3,0,0.66-0.14,1.06-0.43c0.22-0.15,0.39-0.31,0.52-0.47
			c0.13-0.16,0.25-0.33,0.35-0.53c0.11-0.19,0.19-0.28,0.26-0.28c0.1,0,0.15,0.05,0.15,0.14c0,0.17-0.2,0.47-0.61,0.91
			c-0.28,0.32-0.57,0.56-0.88,0.72c-0.31,0.16-0.62,0.25-0.92,0.25c-0.42,0-0.79-0.16-1.09-0.47c-0.31-0.32-0.46-0.71-0.46-1.17
			c0-0.36,0.21-1.01,0.65-1.93c0.07-0.15,0.12-0.29,0.17-0.43c0.04-0.14,0.07-0.25,0.07-0.34c0-0.29-0.15-0.53-0.46-0.72
			c-0.31-0.19-0.68-0.29-1.11-0.29c-1.3,0-2.54,0.45-3.74,1.36c-1.14,0.89-1.9,1.95-2.27,3.16c1.17-0.65,2.28-0.97,3.33-0.97
			c1.02,0,1.83,0.3,2.44,0.9c0.61,0.6,0.92,1.4,0.92,2.41c0,0.4-0.07,0.86-0.22,1.38h1.09l0.09-0.1l0.2-0.37
			c0.87-1.34,1.71-2.45,2.53-3.34c0.82-0.89,1.58-1.54,2.28-1.95c0.71-0.39,1.14-0.58,1.3-0.58c0.07,0.04,0.11,0.09,0.11,0.15
			c0,0.03-0.03,0.06-0.1,0.11c-0.06,0.05-0.13,0.09-0.2,0.13c-0.72,0.39-1.34,0.97-1.88,1.73h0.02c-0.25,0.38-0.54,0.88-0.87,1.52
			c-0.33,0.64-0.7,1.43-1.11,2.38l-0.14,0.31h3.26c1.17-2.23,2.41-3.91,3.72-5.04c1.64-1.43,3.23-2.15,4.77-2.15
			c0.69,0,1.24,0.18,1.67,0.55C108.39,43.06,108.6,43.54,108.6,44.13z M91.12,49.67c-0.22,0.58-0.51,1.09-0.86,1.55
			c-0.35,0.45-0.78,0.88-1.29,1.28c-1.02,0.8-2.07,1.2-3.15,1.2c-0.37,0-0.71-0.06-1.02-0.19c-0.31-0.12-0.58-0.3-0.81-0.52
			c-0.23-0.23-0.41-0.49-0.53-0.8c-0.12-0.31-0.19-0.65-0.19-1.01c0-1.02,0.47-2.03,1.41-3.04c-0.26-0.48-0.39-0.96-0.39-1.44
			c-0.43,0.36-0.81,0.74-1.13,1.16c-0.32,0.42-0.61,0.89-0.86,1.4c-0.54,1.03-0.81,2.01-0.81,2.93c0,1.02,0.3,1.82,0.91,2.42
			c0.61,0.6,1.44,0.9,2.5,0.9c0.59,0,1.18-0.11,1.77-0.32c0.59-0.21,1.15-0.51,1.67-0.89c0.69-0.5,1.24-1.01,1.65-1.53
			c0.19-0.25,0.44-0.59,0.75-1.02c0.3-0.43,0.65-0.98,1.05-1.64c0.03-0.07,0.07-0.14,0.13-0.22c0.06-0.08,0.11-0.15,0.15-0.22H91.12
			z M90.92,47.58c0-0.8-0.24-1.43-0.73-1.9c-0.49-0.47-1.16-0.7-2.03-0.7c-0.6,0-1.21,0.12-1.8,0.37c-0.6,0.25-1.18,0.6-1.74,1.07
			c0.01,0.24,0.04,0.49,0.09,0.77c0.05,0.28,0.12,0.51,0.23,0.71c0.15-0.17,0.34-0.32,0.55-0.46c0.21-0.14,0.43-0.27,0.67-0.41
			c0.25-0.13,0.47-0.23,0.65-0.3c0.18-0.07,0.34-0.11,0.47-0.11c0.11,0,0.16,0.05,0.16,0.14c0,0.08-0.09,0.13-0.26,0.16
			c-0.75,0.26-1.44,0.68-2.07,1.26c0.49,0.52,1.1,0.79,1.81,0.79c1.2,0,2.29-0.65,3.29-1.96c0.05-0.06,0.11-0.09,0.16-0.09
			c0.09,0,0.14,0.05,0.14,0.15c0,0.12-0.18,0.38-0.55,0.77c-0.99,0.95-2.02,1.42-3.1,1.42c-0.84,0-1.5-0.29-1.97-0.87
			c-0.84,0.85-1.26,1.78-1.26,2.78c0,0.65,0.2,1.18,0.6,1.58c0.4,0.4,0.91,0.6,1.53,0.6c0.4,0,0.81-0.09,1.24-0.27
			c0.42-0.18,0.83-0.43,1.24-0.75c0.4-0.32,0.79-0.71,1.15-1.16c0.37-0.45,0.69-0.96,0.98-1.51h-1.4c-0.07,0-0.09-0.03-0.04-0.1
			l0.12-0.21c0-0.01,0.01-0.02,0.04-0.02h1.44C90.79,48.7,90.92,48.12,90.92,47.58z"/>
		<path class="st0" d="M108.05,52.02c0,0.07-0.06,0.19-0.18,0.35c-0.12,0.16-0.28,0.34-0.49,0.56c-0.28,0.3-0.54,0.54-0.8,0.71
			c-0.26,0.17-0.5,0.25-0.73,0.25c-0.2,0-0.38-0.04-0.54-0.13c-0.91,1.2-1.78,1.8-2.62,1.8c-0.52,0-0.96-0.18-1.31-0.55
			c-0.35-0.37-0.52-0.83-0.52-1.38c0-0.88,0.52-1.73,1.55-2.56c1.04-0.85,2.08-1.28,3.12-1.28c0.71,0,1.07,0.33,1.07,0.99
			c0,0.39-0.09,0.81-0.27,1.26c-0.18,0.45-0.47,0.95-0.86,1.5c0.07,0.03,0.12,0.05,0.17,0.07c0.05,0.02,0.11,0.03,0.18,0.03
			c0.52,0,1.12-0.48,1.81-1.44h-0.02c0.09-0.18,0.2-0.27,0.3-0.27C108,51.92,108.05,51.95,108.05,52.02z M103.47,56.96
			c0,0.34-0.16,0.7-0.48,1.09c-0.3,0.37-0.62,0.55-0.97,0.55c-0.36,0-0.54-0.2-0.54-0.6c0-0.2,0.04-0.38,0.12-0.55
			c0.08-0.17,0.2-0.35,0.35-0.53c0.17-0.2,0.34-0.34,0.49-0.43c0.15-0.09,0.32-0.14,0.49-0.14
			C103.29,56.34,103.47,56.55,103.47,56.96z M106.35,50.83c0-0.48-0.22-0.73-0.67-0.73c-0.51,0-1.19,0.6-2.05,1.81
			c-0.89,1.3-1.34,2.22-1.34,2.77c0,0.36,0.2,0.53,0.6,0.53c0.66,0,1.4-0.54,2.21-1.63c-0.22-0.24-0.33-0.52-0.33-0.85
			c0-0.4,0.14-0.8,0.41-1.2c0.28-0.4,0.56-0.59,0.87-0.59c0.03,0,0.07,0.01,0.14,0.03c0.06,0.02,0.11,0.04,0.14,0.05
			C106.34,50.97,106.35,50.91,106.35,50.83z"/>
		<path class="st0" d="M114.64,52.02c0,0.18-0.47,0.8-1.4,1.87c-1.02,1.12-2.01,1.67-2.97,1.67c-0.32,0-0.61-0.05-0.89-0.16
			c-0.28-0.1-0.51-0.25-0.71-0.42c-0.2-0.18-0.36-0.39-0.47-0.64c-0.12-0.25-0.18-0.52-0.18-0.81c0-0.85,0.49-1.69,1.48-2.5
			c0.48-0.4,0.98-0.7,1.49-0.92c0.51-0.22,1.01-0.32,1.5-0.32c0.68,0,1.02,0.39,1.02,1.16c0,0.24-0.04,0.46-0.11,0.68
			c-0.07,0.22-0.18,0.44-0.33,0.66c-0.28,0.4-0.58,0.6-0.93,0.6c-0.46,0-0.69-0.23-0.69-0.68c0-0.61,0.39-1.03,1.16-1.28
			c0.3-0.1,0.45-0.24,0.45-0.41c0-0.29-0.14-0.43-0.43-0.43c-0.21,0-0.48,0.16-0.83,0.49c-0.34,0.33-0.7,0.74-1.08,1.22
			c-0.37,0.54-0.66,1.04-0.87,1.5c-0.21,0.46-0.32,0.84-0.32,1.14c0,0.52,0.33,0.79,0.99,0.79c0.54,0,1.13-0.28,1.77-0.84
			c0.65-0.56,1.28-1.29,1.9-2.2c0.06-0.07,0.12-0.14,0.17-0.19c0.05-0.05,0.11-0.08,0.16-0.08
			C114.61,51.92,114.64,51.95,114.64,52.02z"/>
		<path class="st0" d="M123.51,48.78c-0.89,1.46-1.66,2.75-2.31,3.88c-0.65,1.13-1.16,2.07-1.51,2.82
			c-0.03,0.03-0.06,0.04-0.09,0.04c-0.24-0.07-0.49-0.1-0.76-0.1c-0.17,0-0.34,0.01-0.51,0.03c-0.17,0.02-0.35,0.04-0.55,0.07
			c-0.07,0-0.09-0.03-0.06-0.08c0.36-0.63,0.82-1.46,1.38-2.48c0.56-1.02,1.25-2.24,2.07-3.66l2.79-4.77
			c0.04-0.04,0.07-0.05,0.08-0.04c0.25,0.09,0.52,0.14,0.83,0.14c0.32,0,0.7-0.06,1.15-0.18c0.03-0.01,0.05-0.01,0.08,0.02
			c0.02,0.03,0.03,0.05,0.02,0.08L123.51,48.78z M127.14,52.02c0,0.15-0.49,0.84-1.46,2.07c-0.83,0.98-1.6,1.47-2.32,1.47
			c-0.44,0-0.81-0.13-1.11-0.39c-0.3-0.26-0.45-0.59-0.45-0.98c0-0.23,0.1-0.55,0.3-0.97c0.22-0.38,0.33-0.66,0.33-0.83
			c0-0.03,0-0.03,0.01-0.01c0.01,0.02,0,0.02-0.01-0.01c-0.18,0.07-0.37,0.1-0.55,0.1c-0.28,0-0.41-0.09-0.41-0.26
			c0-0.15,0.12-0.23,0.35-0.23c0.15,0,0.34,0.03,0.58,0.08c0.37-0.22,0.86-0.69,1.46-1.42c0.21-0.25,0.43-0.45,0.66-0.6
			c0.23-0.15,0.44-0.23,0.63-0.23c0.56,0,0.85,0.3,0.85,0.91c0,0.19-0.03,0.38-0.1,0.56c-0.07,0.18-0.16,0.34-0.28,0.49
			c-0.12,0.15-0.25,0.27-0.39,0.36c-0.14,0.09-0.29,0.14-0.45,0.14c-0.44,0-0.66-0.24-0.66-0.71c0-0.4,0.23-0.71,0.69-0.93
			c0.26-0.09,0.38-0.18,0.38-0.27c0-0.11-0.07-0.16-0.22-0.16c-0.21,0-0.46,0.14-0.75,0.43c-0.11,0.13-0.21,0.25-0.32,0.36
			c-0.1,0.11-0.21,0.24-0.32,0.36c-0.3,0.34-0.58,0.61-0.83,0.79c0.81,0.28,1.22,0.66,1.22,1.15c0,0.17-0.06,0.46-0.19,0.87
			c-0.12,0.4-0.18,0.65-0.18,0.75c0,0.18,0.1,0.27,0.3,0.27c0.13,0,0.29-0.08,0.49-0.23c0.2-0.15,0.43-0.36,0.68-0.63
			c0.26-0.27,0.52-0.59,0.81-0.95c0.28-0.37,0.56-0.76,0.84-1.18c0.09-0.18,0.2-0.27,0.31-0.27
			C127.1,51.92,127.14,51.95,127.14,52.02z"/>
		<path class="st0" d="M135.56,52.02c0,0.13-0.5,0.82-1.49,2.07c-0.81,0.98-1.54,1.47-2.19,1.47c-0.21,0-0.4-0.04-0.58-0.13
			c-0.18-0.08-0.33-0.19-0.46-0.33c-0.13-0.14-0.24-0.3-0.32-0.47c-0.08-0.18-0.12-0.36-0.12-0.56c0-0.32,0.07-0.61,0.2-0.87
			c0.1-0.18,0.26-0.45,0.49-0.82c0.23-0.36,0.54-0.84,0.93-1.43c0.21-0.3,0.31-0.51,0.31-0.63c0-0.16-0.08-0.24-0.24-0.24
			c-0.51,0-1.2,0.55-2.07,1.65c-0.87,1.08-1.6,2.34-2.21,3.77c-0.03,0.03-0.05,0.05-0.08,0.05c-0.11-0.03-0.23-0.06-0.36-0.08
			c-0.12-0.02-0.27-0.03-0.43-0.03c-0.14,0-0.3,0.01-0.48,0.03c-0.18,0.02-0.39,0.05-0.62,0.08c-0.04,0-0.06-0.03-0.06-0.09
			l1.84-3.32l1.24-2.15l3.14-5.45c0.03-0.03,0.06-0.04,0.09-0.04c0.29,0.08,0.56,0.12,0.83,0.12c0.11,0,0.26-0.01,0.45-0.04
			c0.19-0.03,0.43-0.07,0.7-0.12c0.03-0.01,0.05-0.01,0.07,0.02c0.02,0.03,0.02,0.05,0.01,0.08l-0.74,1.24
			c-0.17,0.25-0.37,0.56-0.62,0.95c-0.24,0.38-0.52,0.84-0.84,1.36l-1.84,3.04c0.79-0.91,1.48-1.36,2.09-1.36
			c0.41,0,0.75,0.14,1.03,0.43c0.28,0.29,0.41,0.65,0.41,1.08c0,0.15-0.07,0.37-0.2,0.66c-0.13,0.29-0.31,0.63-0.54,1.02l-0.5,0.8
			l-0.43,0.67H132c-0.15,0.22-0.22,0.38-0.22,0.47c0,0.2,0.11,0.29,0.33,0.29c0.67,0,1.68-1,3.04-3.01h-0.02
			c0.09-0.18,0.2-0.27,0.3-0.27C135.52,51.92,135.56,51.95,135.56,52.02z"/>
		<path class="st0" d="M142.63,52.02c0,0.07-0.06,0.19-0.18,0.35c-0.12,0.16-0.28,0.34-0.49,0.56c-0.28,0.3-0.54,0.54-0.8,0.71
			c-0.26,0.17-0.5,0.25-0.73,0.25c-0.2,0-0.38-0.04-0.54-0.13c-0.91,1.2-1.78,1.8-2.62,1.8c-0.52,0-0.96-0.18-1.31-0.55
			c-0.35-0.37-0.52-0.83-0.52-1.38c0-0.88,0.52-1.73,1.55-2.56c1.04-0.85,2.08-1.28,3.12-1.28c0.71,0,1.07,0.33,1.07,0.99
			c0,0.39-0.09,0.81-0.27,1.26c-0.18,0.45-0.47,0.95-0.86,1.5c0.07,0.03,0.12,0.05,0.17,0.07c0.05,0.02,0.11,0.03,0.18,0.03
			c0.52,0,1.12-0.48,1.82-1.44h-0.02c0.09-0.18,0.2-0.27,0.3-0.27C142.58,51.92,142.63,51.95,142.63,52.02z M140.93,50.83
			c0-0.48-0.22-0.73-0.67-0.73c-0.51,0-1.19,0.6-2.05,1.81c-0.89,1.3-1.34,2.22-1.34,2.77c0,0.36,0.2,0.53,0.6,0.53
			c0.66,0,1.39-0.54,2.21-1.63c-0.22-0.24-0.33-0.52-0.33-0.85c0-0.4,0.14-0.8,0.41-1.2c0.28-0.4,0.56-0.59,0.87-0.59
			c0.03,0,0.07,0.01,0.14,0.03c0.06,0.02,0.11,0.04,0.14,0.05C140.93,50.97,140.93,50.91,140.93,50.83z M142.15,48.01l-0.07,0.64
			v0.13c0,0.08-0.03,0.12-0.08,0.12l-0.04-0.02c-0.04-0.01-0.06-0.05-0.06-0.12c-0.04-0.28-0.09-0.52-0.15-0.75
			c-0.06-0.22-0.12-0.41-0.19-0.55c-0.15,0.11-0.35,0.23-0.62,0.37c-0.26,0.14-0.56,0.29-0.89,0.46c-0.38,0.18-0.68,0.31-0.9,0.4
			c-0.23,0.09-0.39,0.13-0.51,0.12c-0.03,0-0.04-0.02-0.05-0.05c-0.01-0.03,0-0.06,0.03-0.07c0.01,0,0.04-0.02,0.09-0.05
			c0.03-0.03,0.06-0.05,0.11-0.08c0.05-0.03,0.1-0.07,0.17-0.12c0.75-0.44,1.38-0.88,1.92-1.31c0.53-0.43,0.96-0.85,1.29-1.26
			c0.03-0.03,0.05-0.04,0.07-0.03c0.02,0.01,0.03,0.02,0.03,0.05L142.15,48.01z"/>
		<path class="st0" d="M152.71,52.02c0,0.18-0.49,0.87-1.46,2.07c-0.81,0.98-1.56,1.47-2.23,1.47c-0.4,0-0.75-0.15-1.04-0.45
			c-0.29-0.3-0.43-0.65-0.43-1.04c0-0.41,0.24-0.96,0.73-1.65c0.4-0.62,0.7-1.1,0.92-1.44c0.22-0.34,0.32-0.55,0.32-0.63
			c0-0.17-0.1-0.26-0.29-0.26c-0.59,0-1.43,0.77-2.52,2.31c-0.23,0.32-0.5,0.74-0.8,1.26c-0.31,0.52-0.65,1.14-1.03,1.86
			c-0.03,0.03-0.05,0.05-0.08,0.05c-0.25-0.07-0.53-0.11-0.85-0.11c-0.17,0-0.35,0.01-0.54,0.03c-0.19,0.02-0.39,0.05-0.6,0.08
			c-0.08,0-0.1-0.04-0.06-0.11l1.32-2.21c1.01-1.67,1.51-2.61,1.51-2.84c0-0.17-0.08-0.25-0.23-0.25c-0.34,0-1.01,0.72-2,2.17
			c-0.07,0.09-0.14,0.14-0.21,0.14c-0.07-0.01-0.1-0.05-0.1-0.12c0-0.11,0.35-0.61,1.05-1.5c0.54-0.69,1.05-1.04,1.53-1.04
			c0.36,0,0.66,0.13,0.92,0.39c0.26,0.26,0.38,0.58,0.38,0.95c0,0.26-0.04,0.5-0.12,0.73c0.05-0.08,0.11-0.16,0.16-0.24
			c0.05-0.08,0.11-0.15,0.16-0.22c0.32-0.46,0.69-0.84,1.12-1.15c0.43-0.31,0.82-0.46,1.15-0.46c0.42,0,0.77,0.14,1.03,0.43
			c0.26,0.29,0.39,0.66,0.39,1.1c0,0.37-0.1,0.75-0.31,1.13v-0.02l-0.06,0.08c-0.04,0.07-0.11,0.18-0.21,0.32
			c-0.1,0.14-0.23,0.32-0.39,0.55c-0.11,0.17-0.22,0.33-0.32,0.5c-0.1,0.16-0.2,0.32-0.29,0.46c-0.09,0.14-0.16,0.27-0.22,0.37
			c-0.05,0.1-0.08,0.17-0.08,0.2c0,0.2,0.12,0.29,0.36,0.29c0.65,0,1.66-1,3.01-3.01h-0.02c0.09-0.18,0.19-0.27,0.31-0.27
			C152.68,51.92,152.71,51.95,152.71,52.02z"/>
		<path class="st0" d="M161.57,52.02c0,0.07-0.1,0.24-0.3,0.5c-0.2,0.26-0.48,0.6-0.83,1.01c-0.88,0.97-1.91,1.68-3.1,2.13
			c-0.38,0.62-0.73,1.19-1.07,1.72c-0.34,0.53-0.62,0.95-0.86,1.27c-0.22,0.29-0.47,0.58-0.76,0.89c-0.28,0.3-0.58,0.61-0.9,0.91
			c-0.36,0.32-0.72,0.6-1.09,0.86c-0.37,0.26-0.76,0.49-1.17,0.7c-0.85,0.41-1.58,0.62-2.17,0.62c-0.48,0-0.88-0.18-1.2-0.53
			c-0.32-0.35-0.47-0.8-0.47-1.33c0-1.24,0.82-2.33,2.46-3.27c0.44-0.26,1.1-0.53,2-0.81c0.89-0.28,1.94-0.54,3.13-0.79l0.74-1.38
			c-0.55,0.69-1.1,1.04-1.64,1.04c-0.48,0-0.89-0.19-1.22-0.56c-0.33-0.37-0.49-0.82-0.49-1.35s0.16-1.03,0.49-1.51
			c0.33-0.48,0.81-0.94,1.44-1.37c0.5-0.32,0.98-0.56,1.44-0.73c0.46-0.17,0.89-0.26,1.29-0.26c0.58,0,0.87,0.26,0.87,0.77
			c0,0.08-0.01,0.14-0.02,0.18l0.52-0.89c0.01-0.01,0.04-0.02,0.08-0.02c0.24,0.05,0.47,0.08,0.72,0.08c0.15,0,0.32-0.01,0.51-0.02
			c0.18-0.01,0.39-0.03,0.63-0.06c0.07,0,0.09,0.03,0.06,0.1l-1.11,1.83c-0.15,0.26-0.35,0.59-0.58,1c-0.24,0.4-0.5,0.87-0.79,1.39
			l-0.64,1.16c0.7-0.28,1.34-0.67,1.92-1.17c0.58-0.5,1.14-1.14,1.67-1.91c0.17-0.21,0.29-0.31,0.35-0.31
			C161.54,51.92,161.57,51.95,161.57,52.02z M155.09,56.19c-0.96,0.19-1.82,0.46-2.59,0.81c-0.76,0.34-1.46,0.76-2.08,1.24
			c-1.28,0.99-1.92,2.01-1.92,3.08c0,0.7,0.31,1.05,0.93,1.05c0.77,0,1.55-0.4,2.32-1.19c0.37-0.4,0.8-0.95,1.29-1.65
			c0.49-0.7,1.02-1.55,1.6-2.57L155.09,56.19z M157.9,50.57c0-0.32-0.14-0.47-0.43-0.47c-0.46,0-1.15,0.63-2.07,1.88
			c-0.91,1.22-1.36,2.17-1.36,2.83c0,0.28,0.14,0.41,0.41,0.41c0.29,0,0.62-0.18,0.99-0.55c0.37-0.37,0.78-0.89,1.22-1.56
			c0.4-0.62,0.7-1.14,0.92-1.58C157.79,51.1,157.9,50.78,157.9,50.57z"/>
		<path class="st0" d="M174.9,52.02c0,0.07-0.1,0.24-0.3,0.5c-0.2,0.26-0.48,0.6-0.83,1.01c-0.88,0.97-1.91,1.68-3.1,2.13
			c-0.38,0.62-0.73,1.19-1.07,1.72c-0.34,0.53-0.62,0.95-0.86,1.27c-0.22,0.29-0.47,0.58-0.76,0.89c-0.28,0.3-0.58,0.61-0.9,0.91
			c-0.36,0.32-0.72,0.6-1.09,0.86c-0.37,0.26-0.76,0.49-1.17,0.7c-0.85,0.41-1.58,0.62-2.17,0.62c-0.48,0-0.88-0.18-1.2-0.53
			c-0.32-0.35-0.47-0.8-0.47-1.33c0-1.24,0.82-2.33,2.46-3.27c0.44-0.26,1.1-0.53,2-0.81c0.89-0.28,1.94-0.54,3.13-0.79l0.74-1.38
			c-0.55,0.69-1.1,1.04-1.64,1.04c-0.48,0-0.89-0.19-1.22-0.56c-0.33-0.37-0.49-0.82-0.49-1.35s0.16-1.03,0.49-1.51
			c0.33-0.48,0.81-0.94,1.44-1.37c0.5-0.32,0.98-0.56,1.44-0.73c0.46-0.17,0.89-0.26,1.29-0.26c0.58,0,0.87,0.26,0.87,0.77
			c0,0.08-0.01,0.14-0.02,0.18l0.52-0.89c0.01-0.01,0.04-0.02,0.08-0.02c0.24,0.05,0.47,0.08,0.72,0.08c0.15,0,0.32-0.01,0.51-0.02
			c0.18-0.01,0.39-0.03,0.63-0.06c0.07,0,0.09,0.03,0.06,0.1l-1.11,1.83c-0.15,0.26-0.35,0.59-0.58,1c-0.24,0.4-0.5,0.87-0.79,1.39
			l-0.64,1.16c0.7-0.28,1.34-0.67,1.92-1.17c0.58-0.5,1.14-1.14,1.67-1.91c0.17-0.21,0.29-0.31,0.35-0.31
			C174.87,51.92,174.9,51.95,174.9,52.02z M168.42,56.19c-0.96,0.19-1.82,0.46-2.59,0.81c-0.76,0.34-1.46,0.76-2.08,1.24
			c-1.28,0.99-1.92,2.01-1.92,3.08c0,0.7,0.31,1.05,0.93,1.05c0.77,0,1.55-0.4,2.32-1.19c0.37-0.4,0.8-0.95,1.29-1.65
			c0.49-0.7,1.02-1.55,1.6-2.57L168.42,56.19z M171.23,50.57c0-0.32-0.14-0.47-0.43-0.47c-0.46,0-1.15,0.63-2.07,1.88
			c-0.91,1.22-1.36,2.17-1.36,2.83c0,0.28,0.14,0.41,0.41,0.41c0.29,0,0.62-0.18,0.99-0.55c0.37-0.37,0.78-0.89,1.22-1.56
			c0.4-0.62,0.7-1.14,0.92-1.58C171.12,51.1,171.23,50.78,171.23,50.57z"/>
		<path class="st0" d="M179.72,52.02c0,0.09-0.12,0.3-0.37,0.64c-0.25,0.34-0.62,0.81-1.1,1.43c-0.81,0.98-1.56,1.47-2.23,1.47
			c-0.38,0-0.7-0.14-0.96-0.42c-0.26-0.28-0.38-0.63-0.38-1.03c0-0.52,0.22-1.14,0.67-1.86l1.46-2.48c0.01-0.01,0.04-0.02,0.08-0.02
			c0.25,0.07,0.54,0.1,0.87,0.1c0.15,0,0.32-0.01,0.49-0.03c0.17-0.02,0.36-0.04,0.57-0.07c0.07,0,0.09,0.03,0.06,0.1l-2.4,4.09
			c-0.33,0.54-0.49,0.86-0.49,0.97c0,0.2,0.11,0.29,0.33,0.29c0.65,0,1.64-1,2.99-3.01h-0.02c0.09-0.18,0.19-0.27,0.3-0.27
			C179.68,51.92,179.72,51.95,179.72,52.02z M180.36,47.11c0,0.21-0.05,0.41-0.16,0.6c-0.1,0.19-0.25,0.4-0.44,0.62
			c-0.42,0.41-0.83,0.62-1.24,0.62c-0.46,0-0.69-0.23-0.69-0.7c0-0.19,0.06-0.4,0.18-0.61c0.12-0.21,0.27-0.41,0.45-0.59
			c0.19-0.19,0.39-0.35,0.62-0.47c0.22-0.12,0.43-0.18,0.63-0.18C180.14,46.4,180.36,46.64,180.36,47.11z"/>
		<path class="st0" d="M185.33,51.21c-0.11,0.67-0.49,1.44-1.12,2.32c0.07,0.03,0.13,0.05,0.18,0.07c0.05,0.02,0.11,0.03,0.18,0.03
			c0.54,0,1.14-0.48,1.82-1.44h-0.02c0.09-0.18,0.2-0.27,0.31-0.27c0.08,0,0.12,0.03,0.12,0.1c0,0.07-0.06,0.19-0.18,0.35
			c-0.12,0.16-0.28,0.34-0.49,0.56c-0.26,0.3-0.51,0.54-0.78,0.71c-0.26,0.17-0.51,0.25-0.75,0.25c-0.2,0-0.37-0.04-0.53-0.13
			c-0.91,1.2-1.79,1.8-2.62,1.8c-0.52,0-0.96-0.18-1.32-0.55c-0.35-0.37-0.53-0.83-0.53-1.38c0-0.85,0.52-1.71,1.55-2.56
			c1.06-0.85,2.1-1.28,3.12-1.28c0.73,0,1.1,0.33,1.1,0.99v0.15c0.17-0.1,0.33-0.22,0.47-0.34c0.19-0.17,0.28-0.32,0.28-0.44
			c0-0.01-0.02-0.02-0.07-0.02c-0.02,0.01-0.05,0.02-0.1,0.02c-0.31,0-0.46-0.19-0.46-0.57c0-0.3,0.15-0.62,0.46-0.97
			c0.34-0.37,0.65-0.55,0.93-0.55c0.36,0,0.53,0.2,0.53,0.58c0,0.35-0.15,0.74-0.45,1.16c-0.3,0.43-0.68,0.79-1.13,1.09
			C185.63,51.02,185.47,51.13,185.33,51.21z M185.09,50.83c0-0.48-0.22-0.73-0.67-0.73c-0.5,0-1.18,0.6-2.04,1.81
			c-0.89,1.3-1.34,2.22-1.34,2.77c0,0.36,0.2,0.53,0.6,0.53c0.65,0,1.39-0.54,2.23-1.63c-0.22-0.24-0.33-0.52-0.33-0.85
			c0-0.4,0.14-0.8,0.41-1.2c0.26-0.4,0.54-0.59,0.85-0.59c0.03,0,0.07,0.01,0.14,0.03c0.06,0.02,0.11,0.04,0.14,0.05
			C185.09,50.97,185.09,50.91,185.09,50.83z M188.39,46.61c0.03,0.03,0.02,0.06-0.02,0.1c-0.52,0.34-0.95,0.62-1.28,0.82
			c-0.33,0.2-0.56,0.34-0.71,0.4c-0.25,0.13-0.53,0.27-0.85,0.41c-0.32,0.14-0.63,0.26-0.95,0.38l-0.19,0.06
			c-0.05,0.03-0.1,0.03-0.14,0c-0.03,0-0.04-0.02-0.04-0.06c0-0.05,0.03-0.09,0.1-0.13c1.64-0.89,2.81-1.81,3.51-2.74
			c0.03-0.07,0.07-0.07,0.11,0L188.39,46.61z"/>
		<path class="st0" d="M191.55,52.02c0,0.09-0.12,0.3-0.37,0.64c-0.25,0.34-0.62,0.81-1.1,1.43c-0.81,0.98-1.56,1.47-2.23,1.47
			c-0.38,0-0.7-0.14-0.96-0.42c-0.26-0.28-0.38-0.63-0.38-1.03c0-0.52,0.22-1.14,0.67-1.86l1.46-2.48c0.01-0.01,0.04-0.02,0.08-0.02
			c0.25,0.07,0.54,0.1,0.87,0.1c0.15,0,0.32-0.01,0.49-0.03c0.17-0.02,0.36-0.04,0.57-0.07c0.07,0,0.09,0.03,0.06,0.1l-2.4,4.09
			c-0.33,0.54-0.49,0.86-0.49,0.97c0,0.2,0.11,0.29,0.33,0.29c0.65,0,1.64-1,2.99-3.01h-0.02c0.09-0.18,0.19-0.27,0.3-0.27
			C191.5,51.92,191.55,51.95,191.55,52.02z M192.18,47.11c0,0.21-0.05,0.41-0.16,0.6c-0.1,0.19-0.25,0.4-0.44,0.62
			c-0.42,0.41-0.83,0.62-1.24,0.62c-0.46,0-0.69-0.23-0.69-0.7c0-0.19,0.06-0.4,0.18-0.61c0.12-0.21,0.27-0.41,0.45-0.59
			c0.19-0.19,0.39-0.35,0.62-0.47c0.22-0.12,0.43-0.18,0.63-0.18C191.96,46.4,192.18,46.64,192.18,47.11z"/>
		<path class="st0" d="M204.44,52.02c0,0.13-0.5,0.82-1.49,2.07c-0.81,0.98-1.54,1.47-2.19,1.47c-0.21,0-0.4-0.04-0.58-0.13
			c-0.18-0.08-0.33-0.19-0.46-0.33c-0.13-0.14-0.24-0.3-0.32-0.47c-0.08-0.18-0.12-0.36-0.12-0.56c0-0.32,0.07-0.61,0.2-0.87
			c0.1-0.18,0.26-0.45,0.49-0.82c0.23-0.36,0.54-0.84,0.93-1.43c0.21-0.3,0.31-0.51,0.31-0.63c0-0.16-0.08-0.24-0.24-0.24
			c-0.51,0-1.2,0.55-2.07,1.65c-0.87,1.08-1.6,2.34-2.21,3.77c-0.03,0.03-0.05,0.05-0.08,0.05c-0.11-0.03-0.23-0.06-0.36-0.08
			c-0.12-0.02-0.27-0.03-0.43-0.03c-0.14,0-0.3,0.01-0.48,0.03c-0.18,0.02-0.39,0.05-0.62,0.08c-0.04,0-0.06-0.03-0.06-0.09
			l1.84-3.32l1.24-2.15l3.14-5.45c0.03-0.03,0.06-0.04,0.09-0.04c0.29,0.08,0.56,0.12,0.83,0.12c0.11,0,0.26-0.01,0.45-0.04
			c0.19-0.03,0.43-0.07,0.7-0.12c0.03-0.01,0.05-0.01,0.07,0.02c0.02,0.03,0.02,0.05,0.01,0.08l-0.74,1.24
			c-0.17,0.25-0.37,0.56-0.62,0.95c-0.24,0.38-0.52,0.84-0.84,1.36l-1.83,3.04c0.79-0.91,1.48-1.36,2.09-1.36
			c0.41,0,0.75,0.14,1.03,0.43c0.28,0.29,0.41,0.65,0.41,1.08c0,0.15-0.07,0.37-0.2,0.66c-0.13,0.29-0.31,0.63-0.54,1.02l-0.5,0.8
			l-0.43,0.67h0.02c-0.15,0.22-0.22,0.38-0.22,0.47c0,0.2,0.11,0.29,0.33,0.29c0.67,0,1.68-1,3.04-3.01h-0.02
			c0.09-0.18,0.2-0.27,0.3-0.27C204.4,51.92,204.44,51.95,204.44,52.02z"/>
		<path class="st0" d="M213.28,52.02c0,0.13-0.5,0.82-1.49,2.07c-0.81,0.98-1.54,1.47-2.19,1.47c-0.4,0-0.73-0.14-0.99-0.41
			c-0.26-0.28-0.39-0.62-0.39-1.02c0-0.05,0-0.11,0.01-0.16c0.01-0.05,0.02-0.12,0.03-0.19c-0.38,0.58-0.77,1.02-1.15,1.33
			c-0.39,0.31-0.76,0.46-1.11,0.46c-0.24,0-0.45-0.05-0.65-0.15c-0.2-0.1-0.37-0.23-0.52-0.4c-0.15-0.17-0.27-0.37-0.36-0.6
			c-0.09-0.23-0.14-0.47-0.14-0.74c0-0.85,0.52-1.71,1.55-2.58c0.5-0.38,1.03-0.7,1.57-0.94c0.54-0.24,1.05-0.36,1.52-0.36
			c0.61,0,0.91,0.25,0.91,0.75c0,0.08-0.01,0.13-0.02,0.16l0.49-0.85c0.01-0.01,0.03-0.02,0.06-0.02c0.24,0.05,0.49,0.08,0.77,0.08
			c0.11,0,0.26-0.01,0.45-0.02c0.2-0.01,0.43-0.03,0.71-0.06c0.07,0,0.09,0.03,0.06,0.1l-1.34,2.24c-1.04,1.72-1.55,2.64-1.55,2.74
			c0,0.2,0.12,0.29,0.35,0.29c0.66,0,1.66-1,3.01-3.01h-0.02c0.09-0.18,0.2-0.27,0.31-0.27C213.24,51.92,213.28,51.95,213.28,52.02z
			 M209.6,50.57c0-0.32-0.14-0.47-0.41-0.47c-0.48,0-1.17,0.61-2.09,1.83c-0.89,1.22-1.34,2.16-1.34,2.81
			c0,0.32,0.13,0.47,0.39,0.47c0.55,0,1.25-0.66,2.11-1.97C209.16,51.87,209.6,50.97,209.6,50.57z M207.83,56.96
			c0,0.34-0.16,0.7-0.48,1.09c-0.3,0.37-0.62,0.55-0.97,0.55c-0.36,0-0.54-0.2-0.54-0.6c0-0.2,0.04-0.38,0.12-0.55
			c0.08-0.17,0.2-0.35,0.35-0.53c0.17-0.2,0.34-0.34,0.49-0.43c0.15-0.09,0.32-0.14,0.49-0.14
			C207.65,56.34,207.83,56.55,207.83,56.96z"/>
		<path class="st0" d="M223.39,52.02c0,0.18-0.49,0.87-1.46,2.07c-0.81,0.98-1.56,1.47-2.23,1.47c-0.4,0-0.75-0.15-1.04-0.45
			c-0.29-0.3-0.43-0.65-0.43-1.04c0-0.41,0.24-0.96,0.73-1.65c0.4-0.62,0.7-1.1,0.92-1.44c0.22-0.34,0.32-0.55,0.32-0.63
			c0-0.17-0.1-0.26-0.29-0.26c-0.59,0-1.43,0.77-2.52,2.31c-0.23,0.32-0.5,0.74-0.8,1.26c-0.31,0.52-0.65,1.14-1.03,1.86
			c-0.03,0.03-0.05,0.05-0.08,0.05c-0.25-0.07-0.53-0.11-0.85-0.11c-0.17,0-0.35,0.01-0.54,0.03c-0.19,0.02-0.39,0.05-0.6,0.08
			c-0.08,0-0.1-0.04-0.06-0.11l1.32-2.21c1.01-1.67,1.51-2.61,1.51-2.84c0-0.17-0.08-0.25-0.23-0.25c-0.34,0-1.01,0.72-2,2.17
			c-0.07,0.09-0.14,0.14-0.21,0.14c-0.07-0.01-0.1-0.05-0.1-0.12c0-0.11,0.35-0.61,1.05-1.5c0.54-0.69,1.05-1.04,1.53-1.04
			c0.36,0,0.66,0.13,0.92,0.39c0.26,0.26,0.38,0.58,0.38,0.95c0,0.26-0.04,0.5-0.12,0.73c0.05-0.08,0.11-0.16,0.16-0.24
			c0.05-0.08,0.11-0.15,0.16-0.22c0.32-0.46,0.69-0.84,1.12-1.15c0.43-0.31,0.82-0.46,1.15-0.46c0.42,0,0.77,0.14,1.03,0.43
			c0.26,0.29,0.39,0.66,0.39,1.1c0,0.37-0.1,0.75-0.31,1.13v-0.02l-0.06,0.08c-0.04,0.07-0.11,0.18-0.21,0.32
			c-0.1,0.14-0.23,0.32-0.39,0.55c-0.11,0.17-0.22,0.33-0.32,0.5c-0.1,0.16-0.2,0.32-0.29,0.46c-0.09,0.14-0.16,0.27-0.22,0.37
			c-0.05,0.1-0.08,0.17-0.08,0.2c0,0.2,0.12,0.29,0.36,0.29c0.65,0,1.66-1,3.01-3.01h-0.02c0.09-0.18,0.19-0.27,0.31-0.27
			C223.35,51.92,223.39,51.95,223.39,52.02z"/>
	</g>
</g>
</svg>
