<svg width="76" height="59" viewBox="0 0 76 59" fill="none" xmlns="http://www.w3.org/2000/svg">
<path d="M2.78664 45.5707L3.12137 45.4936C3.93974 47.8764 5.28039 50.0566 7.05503 51.8703C9.30563 54.1704 12.1622 55.7872 15.2942 56.534C18.4261 57.2809 21.7059 57.1275 24.7542 56.0915C27.8025 55.0554 30.4953 53.179 32.5206 50.6786C34.546 48.1783 35.821 45.1563 36.1979 41.9621C36.5747 38.7679 36.0379 35.5327 34.6497 32.6307C33.2614 29.7287 31.0788 27.2788 28.3546 25.5641C25.8627 23.9956 23.0108 23.1007 20.0781 22.9596C20.3544 22.4078 20.7196 21.8512 21.1702 21.1676L21.2317 21.0743L21.2824 20.9748C21.4015 20.741 21.5904 20.4968 21.9192 20.1412C21.9796 20.0759 22.0515 20 22.1313 19.9161C22.4034 19.6294 22.7659 19.2475 23.067 18.8628C23.2629 18.6324 23.5207 18.4056 23.8894 18.1142C23.959 18.0591 24.0375 17.9982 24.1222 17.9325C24.4378 17.6875 24.8388 17.3762 25.1847 17.0564L25.2076 17.0352L25.2298 17.0133C25.4004 16.8455 25.6336 16.6841 26.002 16.4738C26.075 16.4321 26.1675 16.3812 26.2722 16.3236C26.5616 16.1643 26.9441 15.9538 27.2644 15.7458C27.465 15.6299 27.6547 15.5146 27.8235 15.4116C27.8411 15.4009 27.8584 15.3903 27.8754 15.3799C28.0441 15.277 28.1883 15.189 28.3301 15.1064C28.6457 14.9226 28.8496 14.8262 29.0068 14.7753L29.0803 14.7516L29.1517 14.7222L30.9553 13.9807L30.9612 13.9783L32.5473 13.3203L34.1403 12.6594L33.7209 10.9866L32.098 4.51361L31.6161 2.5918L29.6899 3.05556L27.6922 3.53652L27.683 3.53875L27.6737 3.54106C27.4349 3.60097 27.1401 3.67343 26.8159 3.75312C26.3827 3.85962 25.8969 3.97902 25.4224 4.09855C24.5293 4.27404 23.5591 4.67022 22.7737 4.99095C22.5608 5.07791 22.3614 5.15933 22.1808 5.22929L22.1346 5.24722L22.0892 5.26743C21.7932 5.3994 21.5338 5.49781 21.2229 5.6158C21.0062 5.69802 20.7645 5.78973 20.4679 5.90892C19.8369 6.1625 19.107 6.48867 18.3767 6.97155C18.0424 7.18233 17.7227 7.36426 17.3589 7.57129C17.138 7.697 16.9008 7.83196 16.6342 7.98825C15.9771 8.37347 15.243 8.83377 14.533 9.42503L14.5094 9.44473L14.4863 9.46515C14.1584 9.75583 13.8516 9.99973 13.5021 10.2777C13.2717 10.4608 13.0227 10.6588 12.7368 10.8947C12.1045 11.4164 11.4037 12.0399 10.7806 12.815C9.69209 13.9957 8.52091 15.339 7.5822 16.904C6.61822 18.2615 5.92701 19.7294 5.32237 21.0133C5.24771 21.1719 5.17437 21.3276 5.102 21.48L5.08589 21.5139L5.07106 21.5484C4.39457 23.1228 3.85543 24.7193 3.41898 26.2528L3.41507 26.2665L3.41134 26.2804C2.57516 29.3865 2.20414 32.3256 2.06092 34.8255L2.06036 34.8353L2.05989 34.8451C1.94271 37.3152 2.00912 39.3979 2.15851 40.9456C2.21477 41.6954 2.31637 42.4076 2.3832 42.8646L2.38401 42.8701L2.46767 43.4312L2.78664 45.5707ZM56.8863 22.9596C57.1626 22.4078 57.5278 21.8512 57.9784 21.1676L58.0399 21.0743L58.0906 20.9748C58.2097 20.741 58.3986 20.4968 58.7274 20.1412C58.7878 20.0759 58.8598 20 58.9395 19.9161C59.2116 19.6294 59.5741 19.2475 59.8752 18.8628C60.0711 18.6324 60.3289 18.4056 60.6976 18.1142C60.7673 18.0591 60.8457 17.9982 60.9304 17.9325C61.246 17.6875 61.647 17.3762 61.993 17.0564L62.0159 17.0352L62.0381 17.0133C62.2086 16.8455 62.4418 16.6841 62.8102 16.4738C62.8832 16.4321 62.9757 16.3812 63.0804 16.3236C63.3698 16.1643 63.7523 15.9538 64.0726 15.7458C64.2732 15.6299 64.463 15.5146 64.6318 15.4116L64.6834 15.3801C64.8522 15.277 64.9965 15.189 65.1384 15.1064C65.4539 14.9226 65.6579 14.8262 65.815 14.7753L65.8885 14.7516L65.9599 14.7222L67.7635 13.9807L67.7694 13.9783L69.3555 13.3203L70.9485 12.6594L70.5291 10.9866L68.9062 4.51361L68.4244 2.5918L66.4981 3.05556L64.5004 3.53652L64.4912 3.53875L64.482 3.54106C64.2431 3.60097 63.9483 3.67345 63.624 3.75316C63.1908 3.85965 62.7051 3.97904 62.2306 4.09854C61.3375 4.27404 60.3674 4.67022 59.582 4.99095C59.369 5.07791 59.1696 5.15933 58.9891 5.22929L58.9393 5.24859L58.8906 5.27053C58.5953 5.40346 58.3329 5.50322 58.0151 5.62401C57.8028 5.70471 57.5658 5.79479 57.2779 5.9104C56.6475 6.16352 55.9154 6.49005 55.1835 6.97581C54.8497 7.18619 54.5304 7.3679 54.1671 7.57462C53.9462 7.70033 53.709 7.83529 53.4424 7.99159C52.7854 8.37681 52.0513 8.83711 51.3413 9.42837L51.3176 9.44807L51.2946 9.46849C50.966 9.75968 50.6578 10.0047 50.3065 10.2839C50.0771 10.4663 49.8294 10.6632 49.5457 10.8971C48.9136 11.4182 48.2128 12.0407 47.5896 12.8141C46.5009 13.9951 45.3294 15.3386 44.3904 16.904C43.4264 18.2615 42.7352 19.7294 42.1306 21.0134C42.0559 21.1719 41.9826 21.3276 41.9102 21.48L41.8941 21.5139L41.8793 21.5484C41.2028 23.1228 40.6637 24.7193 40.2272 26.2528L40.2233 26.2665L40.2196 26.2804C39.3834 29.3865 39.0124 32.3256 38.8691 34.8255L38.8686 34.8353L38.8681 34.8451C38.7509 37.3153 38.8173 39.398 38.9667 40.9457C39.023 41.6955 39.1246 42.4076 39.1914 42.8646L39.1922 42.8701L39.2759 43.4312L39.5949 45.5707L39.9296 45.4936C40.748 47.8764 42.0886 50.0566 43.8633 51.8703C46.1139 54.1704 48.9705 55.7872 52.1024 56.534C55.2343 57.2809 58.5141 57.1275 61.5624 56.0915C64.6108 55.0554 67.3035 53.179 69.3288 50.6786C71.3542 48.1783 72.6293 45.1563 73.0061 41.9621C73.383 38.7679 72.8461 35.5327 71.4579 32.6306C70.0697 29.7287 67.887 27.2788 65.1628 25.5641C62.671 23.9956 59.819 23.1007 56.8863 22.9596Z" fill="#01A652" stroke="white" stroke-width="4"/>
</svg>
