<svg width="77" height="62" viewBox="0 0 77 62" fill="none" xmlns="http://www.w3.org/2000/svg">
<path d="M72.8728 13.9175C72.0274 11.6352 70.7139 9.54506 69.0068 7.78786C66.7049 5.41861 63.7812 3.75141 60.5733 2.98088C57.3653 2.21033 54.0057 2.36838 50.8836 3.43652C47.7617 4.50462 45.0062 6.43861 42.9351 9.01299C40.864 11.5873 39.5616 14.6969 39.1769 17.9818C38.7922 21.2667 39.3409 24.5943 40.76 27.58C42.1792 30.5658 44.4115 33.0886 47.2003 34.8551C49.5233 36.3266 52.1529 37.2229 54.873 37.4806C54.6776 37.8054 54.4489 38.1563 54.1837 38.5614L54.1074 38.6778L54.0446 38.802C53.9579 38.9732 53.8083 39.1766 53.49 39.5231C53.4373 39.5806 53.3716 39.6502 53.2969 39.7294C53.0292 40.0132 52.6458 40.4196 52.33 40.8244C52.1696 41.0129 51.9469 41.213 51.5911 41.4961C51.5281 41.5462 51.4548 41.6035 51.3743 41.6664C51.0608 41.9113 50.6366 42.2427 50.2747 42.5796L50.2462 42.6062L50.2185 42.6336C50.0962 42.7547 49.9103 42.8898 49.5569 43.0929C49.4965 43.1276 49.4145 43.173 49.3184 43.2263C49.0343 43.3837 48.6267 43.6094 48.2897 43.8287C48.0885 43.9459 47.8994 44.0616 47.7348 44.1628L47.6846 44.1936C47.5156 44.2974 47.3769 44.3827 47.2408 44.4625C46.9378 44.6401 46.7733 44.7143 46.6708 44.7477L46.5785 44.7777L46.4888 44.8148L44.6975 45.5562L44.6901 45.5593L43.1148 46.2173L41.1347 47.0443L41.652 49.1268L43.2606 55.6027L43.8598 58.0153L46.2758 57.4296L48.2598 56.9487L48.2715 56.9459L48.2831 56.943C48.5112 56.8853 48.8025 56.8132 49.1246 56.7335C49.5557 56.6268 50.0422 56.5064 50.5067 56.3886C51.4495 56.1996 52.4782 55.776 53.2535 55.4568C53.4549 55.3738 53.6393 55.2979 53.8006 55.235L53.8631 55.2106L53.9242 55.1829C54.2064 55.055 54.4449 54.9638 54.7464 54.8487C54.9569 54.7682 55.198 54.6761 55.5061 54.5516C56.1445 54.2935 56.9069 53.9524 57.6747 53.4402C57.9955 53.2367 58.295 53.0652 58.6452 52.8646C58.8656 52.7384 59.1061 52.6007 59.3847 52.4363C60.0463 52.0458 60.8035 51.5688 61.5404 50.9509L61.57 50.9262L61.5987 50.9005C61.9174 50.6162 62.2059 50.3854 62.5447 50.1145C62.7728 49.932 63.0237 49.7314 63.3218 49.4839C63.9559 48.9577 64.678 48.3137 65.326 47.507C66.4052 46.3279 67.5884 44.9626 68.5433 43.3641C69.5224 41.972 70.2248 40.4696 70.8209 39.1946C70.8951 39.0359 70.9677 38.8807 71.0389 38.7297L71.0588 38.6875L71.0772 38.6445C71.759 37.047 72.301 35.4301 72.7389 33.8813L72.7437 33.8642L72.7483 33.847C73.5892 30.7021 73.9617 27.7293 74.1053 25.2041L74.106 25.192L74.1066 25.1798C74.2239 22.6897 74.1578 20.5839 74.007 19.0106C73.9556 18.3552 73.8794 17.702 73.7787 17.0524C73.7782 17.0494 73.7778 17.0463 73.7773 17.0433L73.6969 16.5L73.2998 13.8185L72.8728 13.9175ZM37.2213 17.053C37.2209 17.0503 37.2205 17.0476 37.2201 17.0449L37.1395 16.5001L36.7424 13.8185L36.3154 13.9176C35.4699 11.6352 34.1565 9.54506 32.4493 7.78786C30.1475 5.41861 27.2238 3.75141 24.0159 2.98088C20.8079 2.21033 17.4482 2.36838 14.3262 3.43652C11.2042 4.50462 8.44879 6.43861 6.37765 9.01299C4.30659 11.5872 3.00413 14.6969 2.61946 17.9818C2.2348 21.2667 2.78341 24.5944 4.20256 27.58C5.62176 30.5658 7.85408 33.0886 10.6428 34.8551C12.9658 36.3266 15.5955 37.2229 18.3156 37.4806C18.1201 37.8054 17.8914 38.1563 17.6262 38.5614L17.55 38.6778L17.4871 38.802C17.4005 38.9732 17.2509 39.1766 16.9326 39.5231C16.8799 39.5806 16.8142 39.6502 16.7395 39.7294C16.4717 40.0132 16.0883 40.4196 15.7726 40.8244C15.6121 41.0129 15.3894 41.213 15.0337 41.4961C14.9707 41.5462 14.8974 41.6035 14.8168 41.6664C14.5034 41.9113 14.0792 42.2427 13.7172 42.5796L13.6887 42.6062L13.661 42.6336C13.5388 42.7547 13.3529 42.8898 12.9995 43.0929C12.9391 43.1276 12.857 43.1731 12.7609 43.2263C12.4767 43.3837 12.0692 43.6095 11.7322 43.8287C11.5311 43.9459 11.342 44.0616 11.1774 44.1628L11.1264 44.1941C10.9578 44.2977 10.8193 44.3828 10.6833 44.4625C10.3803 44.6401 10.2158 44.7143 10.1133 44.7477L10.021 44.7777L9.93137 44.8148L8.14648 45.5536C8.14545 45.554 8.14442 45.5544 8.14339 45.5549C7.64092 45.7612 7.24547 45.925 6.97481 46.0376C6.8392 46.0941 6.7349 46.1376 6.66415 46.1672L6.58347 46.201L6.56251 46.2098L6.55698 46.2121L6.55545 46.2128L6.55501 46.213L6.55486 46.213L6.55481 46.2131L7.52418 48.5175L6.55477 46.2131L4.58197 47.043L5.09791 49.1201L6.70643 55.596L7.30569 58.0086L9.72164 57.423L11.7057 56.942L11.7173 56.9392L11.7289 56.9363C11.9571 56.8787 12.2484 56.8066 12.5704 56.7268C13.0015 56.6201 13.488 56.4997 13.9526 56.382C14.8954 56.1929 15.9241 55.7693 16.6994 55.4501C16.9008 55.3671 17.0852 55.2912 17.2464 55.2283L17.3089 55.2039L17.3701 55.1762C17.6522 55.0483 17.8908 54.9572 18.1923 54.842C18.4028 54.7616 18.6439 54.6694 18.9519 54.5449C19.5903 54.2868 20.3528 53.9457 21.1206 53.4334C21.4414 53.23 21.7409 53.0585 22.0911 52.858C22.3115 52.7318 22.552 52.5941 22.8305 52.4296C23.4922 52.0391 24.2493 51.5621 24.9863 50.9442L25.0158 50.9195L25.0446 50.8938C25.3632 50.6095 25.6518 50.3787 25.9905 50.1078C26.2186 49.9254 26.4695 49.7247 26.7677 49.4772C27.4018 48.951 28.1239 48.307 28.7719 47.5003C29.8511 46.3212 31.0343 44.9559 31.9892 43.3574C32.9683 41.9653 33.6707 40.4629 34.2668 39.1879C34.341 39.0292 34.4136 38.874 34.4848 38.723L34.5047 38.6808L34.5231 38.6378C35.2049 37.0403 35.7469 35.4235 36.1848 33.8746L36.1896 33.8575L36.1942 33.8403C37.0351 30.6954 37.4075 27.7226 37.5512 25.1975L37.5519 25.1853L37.5525 25.1731C37.67 22.6796 37.6035 20.5714 37.4523 18.9975C37.3981 18.3468 37.321 17.6982 37.2213 17.053Z" fill="#01A652" stroke="white" stroke-width="5"/>
</svg>
