<svg id="svg" version="1.1" xmlns="http://www.w3.org/2000/svg" xmlns:xlink="http://www.w3.org/1999/xlink" width="400" height="400" viewBox="0, 0, 400,400"><g id="svgg"><path id="path0" d="M184.180 53.157 C 98.325 61.188,38.957 142.038,56.848 226.563 C 68.722 282.661,113.813 327.267,169.531 338.032 C 182.592 340.556,176.020 340.381,262.793 340.520 L 341.797 340.647 341.791 266.905 C 341.784 177.365,341.748 176.648,336.328 157.470 C 331.351 139.861,317.357 112.851,310.966 108.522 C 309.715 107.674,308.618 106.127,309.775 106.842 C 310.107 107.047,310.181 106.997,309.994 106.695 C 309.839 106.443,309.571 106.324,309.400 106.430 C 308.904 106.737,307.704 105.180,308.030 104.652 C 308.207 104.365,308.161 104.277,307.913 104.430 C 307.687 104.569,306.279 103.234,304.783 101.463 C 276.215 67.636,229.483 48.919,184.180 53.157 M202.211 119.502 C 208.192 121.635,218.535 125.312,225.195 127.675 C 231.855 130.037,244.951 134.684,254.297 138.003 C 263.643 141.322,277.925 146.389,286.035 149.265 C 294.145 152.140,300.777 154.580,300.773 154.688 C 300.769 154.795,294.749 157.327,287.395 160.314 C 280.041 163.302,269.756 167.485,264.540 169.610 L 255.056 173.473 250.282 171.135 C 235.744 164.013,215.341 160.221,196.387 161.119 C 190.658 161.390,187.684 162.109,192.285 162.110 C 202.885 162.112,228.778 167.252,239.698 171.522 C 248.324 174.894,249.987 176.807,250.024 183.392 C 250.037 185.759,250.186 189.014,250.355 190.625 C 250.524 192.236,250.643 193.586,250.620 193.624 C 250.597 193.661,248.822 193.078,246.676 192.328 C 215.029 181.263,167.628 181.178,142.198 192.141 L 138.672 193.662 138.672 180.654 L 138.672 167.647 117.155 162.339 C 105.321 159.420,95.354 157.031,95.007 157.031 C 93.624 157.031,95.943 155.979,118.555 146.342 C 131.445 140.848,152.891 131.697,166.211 126.005 C 179.531 120.314,190.634 115.650,190.883 115.641 C 191.133 115.632,196.230 117.370,202.211 119.502 M263.145 223.150 C 271.519 226.002,273.915 234.747,267.798 240.131 C 264.057 243.424,270.074 243.164,197.656 243.164 L 133.398 243.164 131.219 242.282 C 119.952 237.722,122.478 224.498,134.961 222.691 C 140.037 221.956,260.911 222.389,263.145 223.150 M279.352 256.590 C 290.809 259.662,290.918 273.417,279.508 276.354 C 276.515 277.124,120.318 277.278,116.718 276.514 C 105.477 274.129,103.833 261.532,114.206 257.269 C 117.279 256.006,274.759 255.359,279.352 256.590 " stroke="none" fill="#fbfbfb" fill-rule="evenodd"></path><path id="path1" d="M180.469 120.076 C 174.775 122.514,163.613 127.276,155.664 130.658 C 131.137 141.095,120.587 145.592,107.895 151.021 C 101.172 153.897,95.503 156.250,95.297 156.250 C 95.091 156.250,94.922 156.426,94.922 156.641 C 94.922 156.855,95.229 157.036,95.605 157.042 C 96.870 157.063,138.298 167.438,138.693 167.834 C 138.942 168.083,139.045 172.781,138.976 180.792 C 138.916 187.704,138.974 193.360,139.105 193.360 C 139.236 193.359,140.642 192.763,142.230 192.034 C 165.724 181.249,213.843 181.132,245.479 191.784 C 248.041 192.646,250.191 193.299,250.256 193.234 C 250.321 193.168,250.165 189.701,249.908 185.528 L 249.441 177.941 248.165 176.529 C 242.952 170.758,208.616 162.109,190.918 162.109 C 187.689 162.109,188.913 161.456,192.638 161.191 C 213.312 159.724,235.263 163.474,250.464 171.069 L 255.030 173.351 273.902 165.643 C 284.281 161.403,294.485 157.248,296.576 156.409 C 298.668 155.569,300.379 154.795,300.379 154.688 C 300.379 154.580,295.240 152.672,288.959 150.448 C 282.678 148.223,270.947 144.061,262.891 141.198 C 254.834 138.335,240.244 133.154,230.469 129.684 C 220.693 126.215,207.805 121.632,201.829 119.501 C 195.852 117.369,190.930 115.629,190.891 115.635 C 190.852 115.640,186.162 117.639,180.469 120.076 M132.454 223.274 C 121.480 226.239,121.458 239.088,132.422 242.496 C 135.785 243.542,259.971 243.523,263.353 242.477 C 273.174 239.438,273.723 227.509,264.220 223.633 C 261.640 222.581,136.283 222.239,132.454 223.274 M116.931 256.654 C 103.902 259.254,104.238 274.043,117.383 276.544 C 119.104 276.871,140.846 276.959,199.219 276.874 L 278.711 276.758 281.055 275.828 C 290.145 272.220,290.145 260.983,281.055 257.375 L 278.711 256.445 198.633 256.388 C 154.590 256.356,117.824 256.476,116.931 256.654 " stroke="none" fill="#0584be" fill-rule="evenodd"></path><path id="path2" d="M188.765 1.894 C 188.279 2.034,193.113 2.152,199.507 2.155 C 206.516 2.160,209.737 2.060,207.617 1.904 C 203.085 1.570,189.914 1.564,188.765 1.894 M180.664 2.344 L 178.320 2.603 180.469 2.623 C 181.650 2.634,183.760 2.515,185.156 2.358 L 187.695 2.072 185.352 2.078 C 184.063 2.082,181.953 2.201,180.664 2.344 M211.679 2.461 C 211.861 2.642,212.604 2.730,213.329 2.655 C 214.616 2.523,214.608 2.515,212.998 2.325 C 212.091 2.217,211.497 2.279,211.679 2.461 M189.844 2.593 C 180.397 3.037,171.265 4.071,162.368 5.705 C 159.396 6.251,156.676 6.588,156.326 6.453 C 155.975 6.319,155.820 6.341,155.981 6.502 C 156.142 6.663,153.325 7.534,149.719 8.438 C 136.079 11.856,123.362 16.636,110.174 23.301 C 100.882 27.997,100.995 27.945,101.364 27.348 C 101.504 27.123,101.338 27.064,100.964 27.207 C 100.491 27.389,100.450 27.530,100.805 27.749 C 101.130 27.950,100.867 28.263,99.992 28.715 C 99.280 29.083,97.084 30.419,95.111 31.684 C 91.460 34.026,90.741 34.365,91.263 33.496 C 91.462 33.164,91.344 33.180,90.895 33.544 C 90.121 34.172,90.023 34.528,90.723 34.174 C 90.991 34.038,90.877 34.198,90.470 34.529 C 90.062 34.860,89.574 35.036,89.386 34.919 C 89.197 34.803,89.091 34.883,89.150 35.098 C 89.292 35.614,83.631 39.522,83.162 39.232 C 82.962 39.109,81.899 39.723,80.801 40.597 C 79.703 41.472,78.941 42.188,79.108 42.188 C 79.275 42.187,80.187 41.553,81.134 40.777 C 82.081 40.001,82.929 39.439,83.019 39.529 C 83.285 39.796,79.153 42.773,78.516 42.774 C 78.193 42.774,77.925 43.038,77.920 43.360 C 77.915 43.682,77.596 43.919,77.211 43.887 C 76.826 43.854,76.612 43.929,76.735 44.053 C 77.012 44.330,75.401 46.094,74.871 46.094 C 74.661 46.094,74.823 45.698,75.232 45.215 L 75.977 44.336 75.113 45.066 C 74.638 45.468,74.287 45.939,74.332 46.113 C 74.445 46.547,66.402 53.559,66.045 53.338 C 65.887 53.241,64.088 54.779,62.049 56.756 C 60.009 58.734,59.232 59.559,60.322 58.591 C 61.413 57.623,63.140 56.048,64.160 55.092 C 68.089 51.410,65.749 53.984,60.084 59.575 C 56.822 62.795,54.381 65.078,54.659 64.648 C 54.938 64.219,54.094 64.987,52.784 66.355 C 51.474 67.724,50.506 69.011,50.633 69.216 C 50.919 69.679,49.228 71.536,48.776 71.257 C 48.595 71.145,48.538 71.290,48.649 71.580 C 48.760 71.871,48.378 72.539,47.800 73.066 C 47.222 73.592,46.892 73.777,47.068 73.475 C 47.268 73.129,47.236 73.019,46.982 73.176 C 46.309 73.592,43.564 77.343,43.559 77.854 C 43.553 78.458,39.766 83.646,39.515 83.395 C 39.412 83.292,39.647 82.855,40.037 82.424 C 40.427 81.993,40.585 81.641,40.389 81.641 C 39.857 81.641,38.999 83.175,39.278 83.627 C 39.567 84.094,38.716 85.230,38.280 84.960 C 38.113 84.857,37.683 85.254,37.324 85.843 L 36.672 86.914 37.477 85.992 C 38.704 84.585,38.439 85.321,36.864 87.693 C 36.085 88.867,35.306 89.741,35.133 89.634 C 34.961 89.528,34.692 89.646,34.537 89.898 C 34.350 90.200,34.425 90.250,34.756 90.045 C 35.092 89.837,35.193 89.914,35.060 90.278 C 34.952 90.576,34.665 90.776,34.422 90.722 C 34.031 90.635,32.579 92.692,29.734 97.363 C 29.244 98.169,28.926 98.828,29.029 98.828 C 29.131 98.828,30.316 97.069,31.662 94.919 C 33.008 92.769,34.178 91.079,34.263 91.164 C 34.347 91.249,33.292 93.139,31.917 95.366 C 28.499 100.901,23.089 111.038,20.854 116.095 C 19.837 118.394,18.833 120.169,18.622 120.038 C 18.407 119.905,18.362 120.001,18.520 120.257 C 18.675 120.507,17.758 123.391,16.482 126.665 C 13.736 133.715,12.201 138.324,10.431 144.831 C 9.715 147.467,8.980 149.488,8.799 149.323 C 8.617 149.158,8.595 149.243,8.750 149.512 C 8.904 149.780,8.505 152.417,7.863 155.371 C 2.190 181.476,2.133 210.361,7.704 236.328 C 8.280 239.014,8.760 241.680,8.770 242.253 C 8.781 242.826,8.865 243.218,8.959 243.125 C 9.052 243.031,9.715 245.111,10.431 247.747 C 12.207 254.280,14.152 260.116,16.680 266.497 C 17.848 269.448,18.677 272.067,18.522 272.319 C 18.361 272.578,18.407 272.673,18.626 272.537 C 18.839 272.406,19.600 273.653,20.316 275.309 C 22.226 279.725,24.725 284.678,27.998 290.536 C 29.592 293.387,30.788 295.894,30.656 296.107 C 30.338 296.622,35.406 304.330,35.979 304.202 C 36.225 304.147,36.515 304.346,36.623 304.644 C 36.759 305.018,36.652 305.089,36.281 304.875 C 35.963 304.690,35.876 304.708,36.068 304.918 C 36.247 305.113,36.584 305.273,36.816 305.273 C 37.049 305.273,37.321 305.518,37.420 305.816 C 37.544 306.187,37.431 306.260,37.062 306.046 C 36.744 305.862,36.657 305.880,36.849 306.090 C 37.028 306.285,37.380 306.450,37.630 306.455 C 37.881 306.460,38.063 306.761,38.034 307.123 C 38.006 307.485,38.160 307.745,38.376 307.700 C 38.592 307.654,38.858 307.861,38.967 308.160 C 39.099 308.524,38.999 308.600,38.662 308.392 C 38.324 308.183,38.256 308.237,38.455 308.559 C 38.617 308.822,38.848 308.938,38.968 308.818 C 39.249 308.538,40.234 309.350,40.234 309.861 C 40.234 310.076,39.940 310.011,39.580 309.716 C 39.011 309.249,39.017 309.319,39.625 310.254 C 40.426 311.485,40.708 311.635,40.360 310.645 C 40.006 309.638,40.609 310.288,43.315 313.830 C 44.612 315.529,45.565 317.111,45.431 317.346 C 45.297 317.581,45.331 317.643,45.507 317.484 C 45.871 317.154,46.875 317.866,46.875 318.455 C 46.875 318.670,46.567 318.604,46.191 318.310 C 45.573 317.824,45.558 317.838,46.040 318.453 C 46.333 318.826,46.701 319.053,46.858 318.956 C 47.195 318.747,50.953 323.006,50.676 323.283 C 50.571 323.387,49.761 322.563,48.875 321.451 C 47.990 320.339,47.266 319.601,47.266 319.811 C 47.266 320.240,54.775 328.686,55.553 329.131 C 55.829 329.289,55.532 328.819,54.893 328.088 C 54.254 327.356,56.231 329.216,59.287 332.221 C 64.640 337.484,65.370 338.262,64.393 337.658 C 64.105 337.480,64.048 337.551,64.237 337.856 C 64.399 338.119,64.629 338.235,64.749 338.115 C 65.056 337.808,66.048 338.694,65.817 339.068 C 65.620 339.387,69.063 342.694,71.105 344.148 C 73.115 345.580,72.371 344.774,69.508 342.419 C 67.992 341.171,66.835 340.066,66.939 339.962 C 67.129 339.772,75.000 346.455,75.000 346.806 C 75.000 346.911,74.692 346.732,74.316 346.409 C 73.940 346.086,73.369 345.695,73.047 345.539 C 72.725 345.383,72.978 345.698,73.610 346.238 C 74.242 346.777,74.895 347.135,75.062 347.032 C 75.228 346.929,76.733 347.925,78.405 349.244 C 81.943 352.036,82.560 352.611,81.348 351.987 C 80.147 351.370,80.238 351.712,81.493 352.535 C 82.057 352.904,82.398 353.012,82.252 352.775 C 82.105 352.538,82.161 352.344,82.376 352.344 C 82.767 352.344,83.381 353.091,83.392 353.581 C 83.396 353.724,83.558 353.988,83.754 354.167 C 83.964 354.359,83.982 354.271,83.797 353.953 C 83.584 353.585,83.656 353.471,84.028 353.595 C 84.326 353.695,84.570 353.994,84.570 354.261 C 84.570 354.527,85.713 355.560,87.109 356.555 C 88.506 357.550,89.415 358.074,89.130 357.719 C 88.845 357.364,87.740 356.515,86.674 355.831 C 85.608 355.147,84.806 354.517,84.891 354.432 C 85.044 354.279,92.407 359.130,93.164 359.883 C 93.423 360.141,93.318 360.188,92.851 360.023 C 92.407 359.866,92.241 359.927,92.402 360.187 C 92.542 360.414,92.923 360.498,93.248 360.374 C 94.008 360.082,96.571 361.653,96.231 362.203 C 96.080 362.447,96.157 362.507,96.416 362.347 C 97.024 361.971,98.523 362.827,98.193 363.361 C 98.034 363.619,98.105 363.682,98.369 363.519 C 98.612 363.368,101.169 364.564,104.051 366.176 C 113.139 371.258,126.227 376.999,135.816 380.110 C 138.006 380.820,139.719 381.526,139.624 381.680 C 139.530 381.833,139.831 381.859,140.295 381.738 C 140.923 381.574,141.057 381.648,140.821 382.030 C 140.609 382.373,140.656 382.449,140.965 382.258 C 141.559 381.891,143.822 382.380,143.552 382.817 C 143.439 383.000,143.552 383.276,143.804 383.432 C 144.090 383.608,144.157 383.545,143.983 383.263 C 143.597 382.639,143.454 382.614,151.129 384.532 C 174.130 390.280,172.971 390.234,293.262 390.234 L 391.797 390.234 391.797 290.325 C 391.797 226.644,391.652 188.152,391.398 184.173 C 390.397 168.512,387.913 154.771,383.373 139.781 C 382.419 136.631,381.744 133.730,381.872 133.335 C 382.070 132.724,382.036 132.704,381.644 133.203 C 381.259 133.691,381.214 133.643,381.375 132.910 C 381.481 132.426,381.430 132.115,381.262 132.219 C 381.094 132.323,380.479 131.049,379.895 129.388 C 376.008 118.318,368.533 103.360,361.042 91.658 C 360.099 90.185,359.406 88.901,359.502 88.805 C 359.598 88.709,360.062 89.255,360.534 90.019 C 361.313 91.278,362.150 92.073,361.482 90.918 C 360.652 89.483,359.684 88.306,359.399 88.386 C 359.004 88.497,353.393 80.852,353.388 80.197 C 353.387 79.941,353.217 79.765,353.011 79.807 C 352.805 79.849,352.548 79.639,352.440 79.340 C 352.307 78.976,352.408 78.900,352.744 79.108 C 353.075 79.312,353.150 79.262,352.963 78.960 C 352.808 78.709,352.543 78.588,352.376 78.691 C 351.972 78.941,347.952 73.907,348.216 73.480 C 348.328 73.298,347.545 72.149,346.476 70.927 C 345.406 69.705,344.531 68.869,344.531 69.070 C 344.531 69.271,344.802 69.660,345.132 69.934 C 345.462 70.208,346.274 71.153,346.935 72.033 C 347.733 73.096,347.405 72.846,345.957 71.289 C 344.759 70.000,343.846 68.746,343.930 68.502 C 344.102 67.999,340.254 63.522,339.929 63.847 C 339.813 63.963,337.241 61.636,334.214 58.675 C 331.187 55.714,326.689 51.563,324.219 49.450 C 321.748 47.338,319.775 45.441,319.834 45.236 C 319.893 45.031,319.785 44.961,319.593 45.079 C 319.402 45.197,318.431 44.659,317.435 43.884 C 315.421 42.314,314.970 41.668,316.797 42.969 C 318.462 44.154,318.253 43.669,316.535 42.358 C 315.746 41.757,315.229 41.472,315.386 41.726 C 315.543 41.980,315.565 42.188,315.435 42.188 C 314.968 42.187,309.963 38.196,310.046 37.889 C 310.093 37.716,309.829 37.338,309.460 37.049 C 308.855 36.575,308.841 36.590,309.325 37.207 C 309.645 37.614,309.693 37.891,309.446 37.891 C 309.035 37.891,308.416 37.156,308.404 36.654 C 308.401 36.510,308.238 36.247,308.043 36.068 C 307.833 35.876,307.815 35.963,308.000 36.281 C 308.214 36.652,308.143 36.759,307.769 36.623 C 307.471 36.515,307.275 36.215,307.334 35.957 C 307.393 35.700,307.275 35.592,307.072 35.717 C 306.869 35.843,304.535 34.561,301.886 32.868 C 299.238 31.175,295.716 29.034,294.061 28.110 C 292.406 27.186,291.158 26.257,291.289 26.045 C 291.420 25.834,291.343 25.774,291.118 25.913 C 290.894 26.052,287.799 24.696,284.241 22.900 C 256.197 8.742,220.848 1.138,189.844 2.593 M215.430 2.734 C 215.859 2.919,216.738 3.062,217.383 3.051 L 218.555 3.033 217.383 2.734 C 216.738 2.570,215.859 2.428,215.430 2.417 L 214.648 2.399 215.430 2.734 M171.875 3.307 C 166.262 4.132,162.832 4.759,163.003 4.930 C 163.093 5.020,165.346 4.747,168.009 4.324 C 170.673 3.900,174.082 3.392,175.586 3.194 C 177.348 2.962,177.765 2.832,176.758 2.827 C 175.898 2.823,173.701 3.039,171.875 3.307 M219.336 3.098 C 219.766 3.273,221.260 3.521,222.656 3.647 C 224.432 3.808,224.784 3.779,223.828 3.548 C 221.798 3.059,218.410 2.719,219.336 3.098 M225.734 4.015 C 225.922 4.204,226.582 4.295,227.199 4.218 C 228.231 4.089,228.204 4.062,226.856 3.875 C 226.016 3.759,225.538 3.819,225.734 4.015 M230.078 4.670 C 230.400 4.888,231.001 5.069,231.413 5.072 C 232.412 5.080,232.100 4.857,230.664 4.535 C 229.808 4.344,229.650 4.380,230.078 4.670 M141.016 9.837 C 139.619 10.265,138.321 10.764,138.132 10.946 C 137.849 11.216,142.968 9.785,144.331 9.212 C 145.461 8.738,143.223 9.159,141.016 9.837 M253.125 10.023 C 256.052 10.999,257.139 11.285,256.821 10.995 C 256.316 10.536,253.943 9.758,253.164 9.796 C 252.639 9.822,252.633 9.859,253.125 10.023 M258.203 11.459 C 258.203 11.560,258.770 11.840,259.464 12.082 C 260.157 12.323,260.553 12.360,260.343 12.164 C 259.898 11.747,258.203 11.189,258.203 11.459 M133.398 12.500 C 132.539 12.898,131.973 13.236,132.141 13.252 C 132.604 13.296,135.156 12.180,135.156 11.934 C 135.156 11.669,135.276 11.631,133.398 12.500 M260.939 12.442 C 260.941 12.723,266.868 14.903,267.073 14.698 C 267.144 14.626,265.793 14.032,264.070 13.378 C 262.347 12.723,260.938 12.302,260.939 12.442 M129.492 13.881 C 127.915 14.604,128.858 14.605,130.522 13.882 C 131.244 13.569,131.572 13.319,131.250 13.328 C 130.928 13.337,130.137 13.586,129.492 13.881 M126.758 15.053 C 125.776 15.526,125.745 15.579,126.563 15.382 C 127.100 15.252,127.706 14.991,127.910 14.800 C 128.416 14.327,128.138 14.388,126.758 15.053 M275.391 18.164 C 275.928 18.471,276.543 18.722,276.758 18.722 C 276.973 18.722,276.709 18.471,276.172 18.164 C 275.635 17.857,275.020 17.606,274.805 17.606 C 274.590 17.606,274.854 17.857,275.391 18.164 M116.211 19.350 C 115.566 19.645,115.303 19.888,115.625 19.890 C 115.947 19.892,116.650 19.643,117.188 19.336 C 118.423 18.630,117.763 18.639,116.211 19.350 M112.363 21.139 C 111.106 21.787,110.154 22.393,110.246 22.485 C 110.427 22.666,114.844 20.363,114.844 20.088 C 114.844 19.854,114.891 19.834,112.363 21.139 M279.720 20.071 C 280.118 20.437,285.547 23.036,285.547 22.861 C 285.547 22.643,280.252 19.922,279.827 19.922 C 279.679 19.922,279.631 19.989,279.720 20.071 M106.934 24.052 C 105.419 24.873,105.591 25.157,107.129 24.374 C 108.601 23.626,108.862 23.431,108.366 23.453 C 108.169 23.462,107.524 23.731,106.934 24.052 M96.016 30.188 C 93.932 31.510,92.292 32.656,92.371 32.736 C 92.532 32.897,98.699 29.073,99.595 28.256 C 100.586 27.353,99.913 27.716,96.016 30.188 M295.508 28.330 C 296.694 29.292,297.807 29.857,297.483 29.333 C 297.336 29.095,296.656 28.630,295.971 28.299 C 294.816 27.740,294.783 27.742,295.508 28.330 M300.391 31.407 C 300.391 31.610,303.088 33.203,303.433 33.203 C 303.578 33.203,303.050 32.764,302.260 32.227 C 300.876 31.286,300.391 31.073,300.391 31.407 M304.297 34.003 C 305.652 34.923,306.423 35.191,305.469 34.410 C 304.932 33.971,304.316 33.610,304.102 33.608 C 303.887 33.607,303.975 33.785,304.297 34.003 M85.236 37.277 C 83.421 38.560,83.166 38.927,84.698 38.049 C 85.413 37.640,86.181 37.085,86.406 36.816 C 86.983 36.126,86.712 36.233,85.236 37.277 M310.547 38.053 C 310.547 38.304,314.323 41.016,314.674 41.016 C 314.845 41.016,314.042 40.313,312.891 39.453 C 310.808 37.899,310.547 37.743,310.547 38.053 M72.234 47.372 C 71.464 48.066,70.172 49.215,69.361 49.926 C 68.550 50.638,67.949 51.281,68.025 51.356 C 68.102 51.431,69.482 50.283,71.094 48.806 C 72.705 47.329,73.936 46.119,73.828 46.116 C 73.721 46.114,73.003 46.679,72.234 47.372 M321.875 46.590 C 321.875 46.693,324.343 49.012,327.359 51.744 C 330.375 54.476,333.475 57.354,334.248 58.140 C 335.040 58.947,335.417 59.183,335.111 58.681 C 334.475 57.635,321.875 46.126,321.875 46.590 M205.917 52.301 C 207.560 52.294,209.005 52.451,209.128 52.650 C 209.251 52.850,210.236 52.928,211.316 52.824 C 212.602 52.700,213.281 52.784,213.281 53.066 C 213.281 53.335,213.716 53.409,214.441 53.264 C 215.079 53.137,215.914 53.166,216.297 53.330 C 216.679 53.494,217.476 53.589,218.066 53.542 C 218.657 53.495,219.141 53.649,219.141 53.884 C 219.141 54.143,219.518 54.217,220.095 54.072 C 220.620 53.940,221.279 53.976,221.560 54.150 C 221.841 54.325,222.466 54.417,222.949 54.355 C 223.433 54.292,223.828 54.433,223.828 54.667 C 223.828 54.921,224.205 54.998,224.762 54.859 C 225.276 54.730,225.803 54.798,225.934 55.010 C 226.065 55.222,226.524 55.304,226.954 55.191 C 227.396 55.076,227.734 55.179,227.734 55.431 C 227.734 55.709,228.099 55.783,228.711 55.629 C 229.250 55.494,229.688 55.554,229.688 55.763 C 229.688 55.971,230.153 56.053,230.722 55.944 C 231.357 55.823,231.663 55.897,231.515 56.137 C 231.367 56.376,231.671 56.452,232.296 56.332 C 232.922 56.213,233.225 56.288,233.078 56.528 C 232.930 56.767,233.233 56.843,233.859 56.723 C 234.515 56.597,234.791 56.675,234.628 56.938 C 234.470 57.194,234.668 57.272,235.156 57.145 C 235.586 57.032,235.938 57.092,235.938 57.279 C 235.939 57.465,236.502 57.638,237.191 57.663 C 237.879 57.688,238.505 57.898,238.582 58.129 C 238.659 58.361,238.975 58.453,239.283 58.335 C 239.591 58.216,239.844 58.298,239.844 58.515 C 239.844 58.733,240.223 58.812,240.686 58.691 C 241.226 58.550,241.436 58.620,241.271 58.886 C 241.107 59.153,241.317 59.223,241.857 59.082 C 242.431 58.932,242.612 59.004,242.424 59.309 C 242.244 59.599,242.360 59.675,242.753 59.524 C 243.087 59.396,243.359 59.480,243.359 59.712 C 243.359 59.943,243.623 60.031,243.945 59.907 C 244.268 59.783,244.531 59.871,244.531 60.102 C 244.531 60.333,244.795 60.421,245.117 60.298 C 245.439 60.174,245.703 60.278,245.703 60.528 C 245.703 60.779,245.853 60.891,246.037 60.778 C 246.448 60.523,248.828 61.389,248.828 61.792 C 248.828 61.953,249.069 61.992,249.364 61.879 C 249.658 61.766,250.142 61.904,250.438 62.185 C 250.734 62.465,251.328 62.757,251.758 62.832 C 252.188 62.907,252.627 63.083,252.734 63.223 C 252.842 63.362,253.281 63.537,253.711 63.610 C 254.141 63.683,254.551 63.904,254.623 64.101 C 254.695 64.297,254.915 64.359,255.111 64.237 C 255.308 64.116,255.469 64.232,255.469 64.495 C 255.469 64.759,255.572 64.871,255.697 64.745 C 256.024 64.419,258.203 65.237,258.203 65.686 C 258.203 65.893,258.379 65.953,258.594 65.820 C 258.809 65.688,258.984 65.775,258.984 66.016 C 258.984 66.256,259.160 66.344,259.375 66.211 C 259.590 66.078,259.766 66.150,259.766 66.371 C 259.766 66.592,260.016 66.676,260.321 66.559 C 260.627 66.442,261.228 66.696,261.656 67.125 C 262.084 67.553,262.537 67.801,262.663 67.676 C 262.788 67.550,262.891 67.663,262.891 67.927 C 262.891 68.190,263.066 68.297,263.281 68.164 C 263.496 68.031,263.672 68.138,263.672 68.401 C 263.672 68.665,263.782 68.771,263.916 68.637 C 264.248 68.304,267.188 69.837,267.188 70.343 C 267.188 70.567,267.363 70.641,267.578 70.508 C 267.793 70.375,267.969 70.463,267.969 70.703 C 267.969 70.943,268.138 71.035,268.345 70.907 C 268.552 70.779,269.079 71.033,269.517 71.470 C 269.955 71.908,270.313 72.168,270.313 72.048 C 270.313 71.929,270.840 72.142,271.484 72.523 C 272.129 72.904,272.656 73.364,272.656 73.545 C 272.656 73.726,272.833 73.765,273.050 73.631 C 273.266 73.497,273.548 73.662,273.677 73.996 C 273.805 74.331,274.061 74.512,274.245 74.398 C 274.430 74.284,274.924 74.534,275.344 74.953 C 275.763 75.373,276.185 75.638,276.281 75.542 C 276.377 75.446,277.007 75.883,277.681 76.512 C 278.355 77.142,278.906 77.572,278.906 77.468 C 278.906 77.363,279.591 77.820,280.427 78.483 C 281.264 79.145,282.131 79.688,282.354 79.688 C 282.577 79.688,282.872 80.042,283.010 80.474 C 283.147 80.907,283.408 81.169,283.591 81.057 C 283.773 80.944,284.276 81.302,284.709 81.852 C 285.142 82.403,285.583 82.800,285.690 82.735 C 285.797 82.670,286.851 83.452,288.033 84.473 C 289.215 85.493,290.268 86.328,290.373 86.328 C 290.916 86.328,303.515 99.031,306.681 102.771 C 308.700 105.156,311.379 108.157,312.635 109.441 C 313.890 110.725,314.836 111.856,314.737 111.956 C 314.637 112.055,315.059 112.676,315.675 113.335 C 316.290 113.994,316.708 114.672,316.602 114.843 C 316.497 115.013,316.685 115.258,317.019 115.386 C 317.354 115.514,317.530 115.778,317.410 115.972 C 317.290 116.166,317.466 116.429,317.800 116.558 C 318.135 116.686,318.311 116.950,318.191 117.144 C 318.071 117.338,318.247 117.601,318.582 117.730 C 318.916 117.858,319.092 118.122,318.972 118.316 C 318.853 118.510,319.042 118.779,319.394 118.914 C 319.746 119.049,319.935 119.257,319.815 119.378 C 319.695 119.498,319.940 119.940,320.359 120.359 C 320.779 120.779,321.001 121.319,320.852 121.559 C 320.688 121.824,320.759 121.886,321.033 121.717 C 321.281 121.564,321.484 121.624,321.484 121.852 C 321.484 122.079,321.484 122.354,321.484 122.461 C 321.484 122.568,321.842 123.014,322.280 123.452 C 322.717 123.889,322.971 124.417,322.843 124.624 C 322.715 124.831,322.807 125.000,323.047 125.000 C 323.287 125.000,323.375 125.176,323.242 125.391 C 323.109 125.605,323.197 125.781,323.438 125.781 C 323.678 125.781,323.766 125.957,323.633 126.172 C 323.500 126.387,323.574 126.563,323.797 126.563 C 324.303 126.563,325.837 129.502,325.504 129.834 C 325.370 129.968,325.476 130.078,325.739 130.078 C 326.003 130.078,326.109 130.254,325.977 130.469 C 325.844 130.684,325.932 130.859,326.172 130.859 C 326.412 130.859,326.500 131.035,326.367 131.250 C 326.234 131.465,326.322 131.641,326.563 131.641 C 326.803 131.641,326.891 131.816,326.758 132.031 C 326.625 132.246,326.713 132.422,326.953 132.422 C 327.193 132.422,327.281 132.598,327.148 132.813 C 327.016 133.027,327.104 133.203,327.344 133.203 C 327.584 133.203,327.672 133.379,327.539 133.594 C 327.406 133.809,327.494 133.984,327.734 133.984 C 327.975 133.984,328.062 134.160,327.930 134.375 C 327.797 134.590,327.885 134.766,328.125 134.766 C 328.365 134.766,328.453 134.941,328.320 135.156 C 328.188 135.371,328.275 135.547,328.516 135.547 C 328.756 135.547,328.844 135.723,328.711 135.938 C 328.578 136.152,328.623 136.328,328.811 136.328 C 329.288 136.328,330.531 139.037,330.257 139.480 C 330.133 139.680,330.190 139.844,330.383 139.844 C 330.797 139.844,331.757 141.811,331.479 142.089 C 331.373 142.194,331.553 142.546,331.877 142.870 C 332.201 143.195,332.374 143.701,332.261 143.996 C 332.148 144.290,332.245 144.531,332.476 144.531 C 332.707 144.531,332.791 144.804,332.663 145.137 C 332.511 145.534,332.588 145.647,332.883 145.464 C 333.186 145.277,333.253 145.400,333.086 145.834 C 332.949 146.192,333.026 146.484,333.257 146.484 C 333.488 146.484,333.576 146.748,333.452 147.070 C 333.329 147.393,333.417 147.656,333.648 147.656 C 333.879 147.656,333.967 147.920,333.843 148.242 C 333.719 148.564,333.807 148.828,334.038 148.828 C 334.270 148.828,334.357 149.092,334.234 149.414 C 334.110 149.736,334.198 150.000,334.429 150.000 C 334.660 150.000,334.748 150.264,334.624 150.586 C 334.501 150.908,334.589 151.172,334.820 151.172 C 335.051 151.172,335.139 151.436,335.015 151.758 C 334.891 152.080,334.979 152.344,335.210 152.344 C 335.441 152.344,335.529 152.607,335.406 152.930 C 335.282 153.252,335.370 153.516,335.601 153.516 C 335.832 153.516,335.924 153.768,335.806 154.076 C 335.688 154.385,335.744 154.692,335.932 154.760 C 336.120 154.828,336.330 155.410,336.398 156.055 C 336.467 156.699,336.660 157.328,336.827 157.451 C 336.994 157.575,337.169 158.234,337.217 158.915 C 337.265 159.597,337.457 160.155,337.643 160.155 C 337.829 160.156,337.890 160.508,337.777 160.938 C 337.665 161.367,337.753 161.719,337.973 161.719 C 338.193 161.719,338.283 162.062,338.173 162.481 C 338.063 162.901,338.146 163.301,338.356 163.371 C 338.567 163.442,338.768 164.240,338.803 165.146 C 338.838 166.051,339.020 166.793,339.206 166.795 C 339.392 166.796,339.461 167.231,339.360 167.762 C 339.249 168.339,339.331 168.630,339.562 168.487 C 339.799 168.341,339.879 168.724,339.769 169.476 C 339.669 170.151,339.756 170.703,339.960 170.703 C 340.166 170.703,340.226 171.234,340.094 171.894 C 339.929 172.716,339.990 173.003,340.289 172.818 C 340.587 172.634,340.671 172.995,340.557 173.970 C 340.466 174.751,340.555 175.391,340.755 175.391 C 340.955 175.391,341.024 176.094,340.909 176.953 C 340.768 178.003,340.836 178.432,341.114 178.259 C 341.399 178.083,341.452 178.667,341.283 180.115 C 341.103 181.649,341.148 182.066,341.448 181.641 C 341.745 181.218,341.801 181.870,341.648 183.984 C 341.496 186.080,341.551 186.746,341.843 186.328 C 342.131 185.915,342.184 187.347,342.024 191.175 C 341.899 194.163,341.797 229.188,341.797 269.007 L 341.797 341.406 265.527 341.400 C 216.522 341.396,189.467 341.260,189.844 341.018 C 190.229 340.771,189.305 340.728,187.145 340.892 C 184.771 341.072,183.936 341.020,184.131 340.705 C 184.323 340.394,183.818 340.337,182.373 340.508 C 180.900 340.683,180.422 340.626,180.623 340.301 C 180.824 339.976,180.395 339.922,179.061 340.105 C 177.806 340.277,177.303 340.226,177.478 339.942 C 177.651 339.663,177.206 339.598,176.112 339.745 C 175.109 339.880,174.579 339.818,174.724 339.583 C 174.864 339.358,174.492 339.272,173.807 339.373 C 173.174 339.466,172.656 339.377,172.656 339.174 C 172.656 338.972,172.129 338.885,171.484 338.979 C 170.840 339.074,170.312 338.999,170.310 338.814 C 170.309 338.628,169.567 338.448,168.661 338.413 C 167.756 338.378,166.951 338.157,166.872 337.922 C 166.794 337.687,166.559 337.601,166.351 337.730 C 165.867 338.029,160.547 336.739,160.547 336.323 C 160.547 336.151,160.195 336.103,159.766 336.215 C 159.336 336.327,158.984 336.267,158.984 336.081 C 158.983 335.895,158.413 335.702,157.717 335.653 C 157.021 335.604,156.394 335.394,156.325 335.186 C 156.256 334.979,155.947 334.906,155.639 335.025 C 155.330 335.143,155.078 335.051,155.078 334.820 C 155.078 334.589,154.814 334.501,154.492 334.624 C 154.170 334.748,153.906 334.644,153.906 334.394 C 153.906 334.143,153.759 334.029,153.580 334.140 C 153.148 334.407,150.391 333.551,150.391 333.150 C 150.391 332.978,150.127 332.938,149.805 333.062 C 149.482 333.186,149.219 333.098,149.219 332.867 C 149.219 332.635,148.955 332.548,148.633 332.671 C 148.311 332.795,148.047 332.707,148.047 332.476 C 148.047 332.245,147.783 332.157,147.461 332.281 C 147.139 332.404,146.875 332.316,146.875 332.085 C 146.875 331.854,146.634 331.758,146.339 331.871 C 146.045 331.984,145.560 331.832,145.262 331.534 C 144.964 331.236,144.522 331.058,144.280 331.138 C 144.038 331.219,143.599 331.043,143.304 330.748 C 143.008 330.452,142.524 330.292,142.227 330.390 C 141.904 330.498,141.796 330.396,141.958 330.133 C 142.125 329.864,142.015 329.778,141.672 329.910 C 141.366 330.027,140.851 329.858,140.527 329.533 C 140.202 329.209,139.828 329.052,139.695 329.185 C 139.562 329.318,139.453 329.212,139.453 328.948 C 139.453 328.685,139.281 328.576,139.070 328.706 C 138.596 328.999,128.516 323.917,128.516 323.386 C 128.516 323.174,128.340 323.109,128.125 323.242 C 127.910 323.375,127.734 323.287,127.734 323.047 C 127.734 322.807,127.559 322.719,127.344 322.852 C 127.129 322.984,126.953 322.896,126.953 322.656 C 126.953 322.416,126.784 322.324,126.577 322.452 C 126.370 322.580,125.872 322.371,125.470 321.987 C 125.068 321.603,124.491 321.235,124.186 321.170 C 123.882 321.104,123.406 320.753,123.128 320.389 C 122.850 320.025,122.542 319.771,122.444 319.824 C 122.022 320.055,121.455 319.894,121.639 319.596 C 121.750 319.417,121.612 319.271,121.332 319.271 C 120.658 319.271,114.844 315.240,114.844 314.772 C 114.844 314.571,114.667 314.516,114.450 314.650 C 114.234 314.784,113.952 314.619,113.823 314.285 C 113.695 313.950,113.462 313.755,113.306 313.852 C 112.929 314.085,106.641 309.101,106.641 308.570 C 106.641 308.343,106.479 308.257,106.281 308.379 C 106.084 308.501,105.359 307.940,104.670 307.133 C 103.981 306.325,103.539 305.928,103.688 306.250 C 103.836 306.572,103.033 305.869,101.902 304.688 C 100.772 303.506,100.079 302.847,100.362 303.223 C 101.497 304.729,100.354 303.683,95.697 298.951 C 93.015 296.225,91.172 294.241,91.602 294.541 C 92.031 294.840,91.328 294.070,90.039 292.829 C 88.750 291.588,87.959 290.699,88.281 290.853 C 88.604 291.007,88.164 290.480,87.305 289.681 C 86.445 288.881,86.006 288.351,86.328 288.501 C 86.650 288.652,86.299 288.231,85.547 287.567 C 84.795 286.903,84.331 286.353,84.516 286.344 C 84.701 286.335,84.437 285.982,83.930 285.560 C 83.423 285.137,83.159 284.786,83.344 284.779 C 83.529 284.771,83.265 284.420,82.758 283.997 C 82.251 283.575,81.987 283.223,82.172 283.216 C 82.357 283.209,82.093 282.857,81.586 282.435 C 81.079 282.012,80.835 281.661,81.044 281.654 C 81.253 281.646,81.030 281.365,80.549 281.028 C 80.068 280.691,79.776 280.252,79.899 280.051 C 80.023 279.851,79.945 279.688,79.725 279.688 C 79.293 279.688,76.272 275.423,76.088 274.555 C 76.027 274.264,75.766 273.850,75.510 273.634 C 75.253 273.419,74.989 272.979,74.924 272.658 C 74.858 272.336,74.595 271.897,74.338 271.681 C 74.081 271.465,73.817 271.040,73.752 270.736 C 73.686 270.431,73.319 269.854,72.935 269.452 C 72.551 269.050,72.342 268.552,72.470 268.345 C 72.598 268.138,72.521 267.969,72.299 267.969 C 71.792 267.969,70.648 265.811,70.979 265.479 C 71.114 265.345,71.009 265.234,70.745 265.234 C 70.482 265.234,70.375 265.059,70.508 264.844 C 70.641 264.629,70.565 264.453,70.340 264.453 C 69.800 264.453,66.704 258.278,67.002 257.796 C 67.130 257.590,67.037 257.422,66.797 257.422 C 66.557 257.422,66.469 257.246,66.602 257.031 C 66.734 256.816,66.646 256.641,66.406 256.641 C 66.166 256.641,66.069 256.480,66.190 256.283 C 66.312 256.087,66.226 255.865,66.001 255.789 C 65.775 255.714,65.561 255.260,65.525 254.779 C 65.488 254.299,65.291 253.906,65.086 253.906 C 64.881 253.906,64.822 253.797,64.955 253.664 C 65.088 253.531,64.934 253.159,64.612 252.838 C 64.291 252.516,64.094 252.055,64.174 251.814 C 64.255 251.572,64.079 251.132,63.783 250.837 C 63.488 250.542,63.312 250.102,63.393 249.860 C 63.473 249.619,63.295 249.177,62.997 248.879 C 62.699 248.581,62.548 248.096,62.661 247.801 C 62.774 247.507,62.713 247.266,62.526 247.266 C 62.087 247.266,61.271 244.940,61.551 244.486 C 61.669 244.296,61.560 244.141,61.309 244.141 C 61.059 244.141,60.955 243.877,61.079 243.555 C 61.202 243.232,61.115 242.969,60.883 242.969 C 60.652 242.969,60.568 242.696,60.696 242.363 C 60.847 241.970,60.771 241.854,60.481 242.033 C 60.176 242.221,60.104 242.040,60.254 241.467 C 60.395 240.927,60.325 240.716,60.058 240.881 C 59.792 241.045,59.722 240.835,59.863 240.295 C 59.984 239.832,59.905 239.453,59.687 239.453 C 59.470 239.453,59.393 239.189,59.516 238.867 C 59.640 238.545,59.550 238.281,59.317 238.281 C 59.084 238.281,58.985 237.929,59.098 237.499 C 59.226 237.007,59.148 236.813,58.886 236.975 C 58.620 237.139,58.550 236.929,58.691 236.389 C 58.812 235.926,58.731 235.547,58.512 235.547 C 58.292 235.547,58.204 235.195,58.316 234.765 C 58.444 234.278,58.366 234.079,58.110 234.237 C 57.838 234.406,57.789 234.130,57.966 233.424 C 58.161 232.650,58.107 232.435,57.771 232.643 C 57.437 232.849,57.380 232.641,57.568 231.894 C 57.734 231.230,57.669 230.859,57.384 230.859 C 57.132 230.859,57.029 230.521,57.144 230.078 C 57.257 229.648,57.169 229.297,56.949 229.297 C 56.729 229.297,56.641 228.945,56.754 228.516 C 56.866 228.087,56.783 227.627,56.570 227.495 C 56.357 227.363,56.269 226.924,56.375 226.519 C 56.481 226.114,56.393 225.674,56.179 225.542 C 55.966 225.410,55.878 224.971,55.984 224.566 C 56.090 224.160,56.002 223.721,55.789 223.589 C 55.575 223.457,55.487 223.018,55.593 222.613 C 55.699 222.207,55.616 221.771,55.409 221.643 C 55.202 221.515,55.069 221.031,55.113 220.568 C 55.158 220.105,55.060 219.416,54.897 219.037 C 54.733 218.658,54.691 217.999,54.802 217.572 C 54.914 217.146,54.823 216.797,54.599 216.797 C 54.352 216.797,54.276 216.188,54.404 215.234 C 54.531 214.283,54.455 213.672,54.209 213.672 C 53.961 213.672,53.881 212.993,54.003 211.914 C 54.122 210.854,54.043 210.156,53.804 210.156 C 53.556 210.156,53.487 209.279,53.620 207.813 C 53.737 206.518,53.674 205.469,53.479 205.469 C 53.278 205.469,53.125 201.507,53.125 196.289 C 53.125 191.071,53.278 187.109,53.479 187.109 C 53.674 187.109,53.737 186.061,53.620 184.766 C 53.487 183.299,53.556 182.422,53.804 182.422 C 54.043 182.422,54.122 181.724,54.003 180.664 C 53.870 179.486,53.953 178.906,54.254 178.906 C 54.537 178.906,54.612 178.547,54.458 177.931 C 54.323 177.394,54.345 176.647,54.506 176.270 C 54.668 175.894,54.763 175.120,54.718 174.550 C 54.673 173.981,54.800 173.414,55.000 173.290 C 55.200 173.167,55.279 172.622,55.176 172.080 C 55.063 171.494,55.167 171.094,55.431 171.094 C 55.703 171.094,55.784 170.734,55.640 170.160 C 55.511 169.646,55.579 169.119,55.791 168.988 C 56.003 168.856,56.090 168.418,55.984 168.012 C 55.878 167.607,55.966 167.168,56.179 167.036 C 56.393 166.904,56.481 166.465,56.375 166.059 C 56.269 165.654,56.357 165.215,56.570 165.083 C 56.783 164.951,56.866 164.492,56.754 164.062 C 56.641 163.633,56.729 163.281,56.949 163.281 C 57.169 163.281,57.257 162.930,57.144 162.500 C 57.032 162.070,57.120 161.719,57.340 161.719 C 57.560 161.719,57.647 161.367,57.535 160.938 C 57.423 160.508,57.511 160.156,57.730 160.156 C 57.950 160.156,58.038 159.805,57.926 159.375 C 57.813 158.945,57.901 158.594,58.121 158.594 C 58.341 158.594,58.429 158.242,58.316 157.813 C 58.204 157.383,58.292 157.031,58.512 157.031 C 58.731 157.031,58.812 156.652,58.691 156.189 C 58.570 155.726,58.630 155.445,58.825 155.565 C 59.020 155.684,59.200 155.236,59.225 154.569 C 59.250 153.901,59.460 153.292,59.692 153.215 C 59.923 153.138,60.016 152.822,59.897 152.514 C 59.779 152.205,59.871 151.953,60.102 151.953 C 60.333 151.953,60.421 151.689,60.298 151.367 C 60.174 151.045,60.262 150.781,60.493 150.781 C 60.724 150.781,60.812 150.518,60.688 150.195 C 60.564 149.873,60.668 149.609,60.919 149.609 C 61.169 149.609,61.278 149.454,61.161 149.264 C 60.868 148.790,61.706 146.484,62.171 146.484 C 62.377 146.484,62.446 146.322,62.323 146.123 C 62.066 145.708,62.874 143.696,63.469 143.268 C 63.688 143.110,63.744 142.978,63.595 142.975 C 63.196 142.966,64.077 140.625,64.479 140.625 C 64.666 140.625,64.727 140.384,64.614 140.089 C 64.501 139.795,64.674 139.288,64.998 138.964 C 65.322 138.640,65.479 138.265,65.346 138.132 C 65.213 137.999,65.339 137.891,65.625 137.891 C 65.911 137.891,66.043 137.788,65.917 137.662 C 65.591 137.335,66.409 135.156,66.858 135.156 C 67.065 135.156,67.125 134.980,66.992 134.766 C 66.859 134.551,66.947 134.375,67.187 134.375 C 67.428 134.375,67.516 134.199,67.383 133.984 C 67.250 133.770,67.338 133.594,67.578 133.594 C 67.818 133.594,67.906 133.418,67.773 133.203 C 67.641 132.988,67.713 132.812,67.933 132.813 C 68.154 132.813,68.239 132.562,68.122 132.257 C 68.004 131.951,68.259 131.351,68.687 130.922 C 69.116 130.494,69.364 130.041,69.238 129.915 C 69.113 129.790,69.245 129.688,69.531 129.688 C 69.818 129.688,69.942 129.578,69.808 129.444 C 69.485 129.120,71.002 126.172,71.492 126.172 C 71.703 126.172,71.854 126.040,71.829 125.879 C 71.717 125.173,71.931 124.697,72.754 123.813 C 73.237 123.294,73.585 122.820,73.527 122.759 C 73.298 122.518,74.655 120.313,75.033 120.313 C 75.255 120.313,75.332 120.143,75.204 119.936 C 75.076 119.729,75.315 119.216,75.734 118.797 C 76.154 118.377,76.399 117.935,76.279 117.815 C 76.158 117.695,76.348 117.486,76.700 117.351 C 77.051 117.216,77.241 116.947,77.121 116.753 C 77.002 116.559,77.177 116.296,77.512 116.167 C 77.847 116.039,78.022 115.775,77.903 115.581 C 77.783 115.387,77.959 115.124,78.293 114.995 C 78.628 114.867,78.816 114.622,78.710 114.452 C 78.605 114.281,79.028 113.597,79.650 112.930 C 80.273 112.264,80.668 111.713,80.528 111.706 C 80.388 111.699,80.688 111.347,81.196 110.925 C 81.703 110.502,81.966 110.150,81.782 110.143 C 81.597 110.136,81.833 109.806,82.308 109.410 C 82.782 109.015,83.080 108.601,82.971 108.491 C 82.861 108.382,83.264 107.905,83.866 107.431 C 84.468 106.957,84.873 106.514,84.766 106.446 C 84.473 106.261,88.502 101.403,90.157 99.945 C 90.952 99.246,91.568 98.563,91.527 98.428 C 91.485 98.293,93.311 96.351,95.583 94.111 C 97.855 91.871,99.575 90.303,99.405 90.625 C 99.236 90.947,100.103 90.156,101.332 88.867 C 102.562 87.578,103.446 86.787,103.297 87.109 C 103.149 87.432,103.597 87.027,104.293 86.210 C 104.989 85.394,105.650 84.816,105.761 84.928 C 105.872 85.039,106.311 84.687,106.737 84.146 C 107.163 83.605,107.607 83.258,107.724 83.375 C 107.842 83.493,108.185 83.235,108.488 82.803 C 108.790 82.372,109.202 82.119,109.402 82.243 C 109.602 82.367,109.766 82.301,109.766 82.096 C 109.766 81.617,113.638 78.680,114.101 78.809 C 114.295 78.862,114.453 78.739,114.453 78.534 C 114.453 78.330,115.244 77.618,116.211 76.953 C 117.178 76.288,117.969 75.840,117.969 75.958 C 117.969 76.076,118.327 75.814,118.764 75.376 C 119.202 74.939,119.756 74.702,119.996 74.851 C 120.262 75.015,120.324 74.944,120.154 74.670 C 120.001 74.422,120.062 74.219,120.289 74.219 C 121.036 74.219,121.284 74.108,121.680 73.595 C 121.895 73.317,122.327 73.036,122.641 72.971 C 122.955 72.905,123.553 72.550,123.970 72.181 C 124.387 71.813,124.877 71.604,125.059 71.716 C 125.241 71.829,125.391 71.706,125.391 71.442 C 125.391 71.179,125.493 71.066,125.618 71.191 C 125.744 71.317,126.190 71.076,126.609 70.656 C 127.029 70.237,127.542 69.998,127.749 70.126 C 127.956 70.254,128.125 70.162,128.125 69.922 C 128.125 69.682,128.301 69.594,128.516 69.727 C 128.730 69.859,128.906 69.783,128.906 69.558 C 128.906 69.018,136.644 65.142,137.127 65.440 C 137.332 65.567,137.500 65.475,137.500 65.234 C 137.500 64.994,137.676 64.906,137.891 65.039 C 138.105 65.172,138.281 65.112,138.281 64.905 C 138.281 64.699,138.809 64.346,139.453 64.121 C 140.098 63.896,140.625 63.804,140.625 63.915 C 140.625 64.027,140.909 63.834,141.256 63.487 C 141.603 63.140,142.085 62.922,142.327 63.002 C 142.569 63.083,143.008 62.907,143.304 62.612 C 143.599 62.316,144.038 62.140,144.280 62.221 C 144.522 62.302,144.964 62.124,145.262 61.825 C 145.560 61.527,146.045 61.376,146.339 61.489 C 146.634 61.602,146.875 61.541,146.875 61.354 C 146.875 60.915,149.201 60.099,149.654 60.379 C 149.844 60.497,150.000 60.388,150.000 60.138 C 150.000 59.887,150.264 59.783,150.586 59.907 C 150.908 60.031,151.172 59.943,151.172 59.712 C 151.172 59.480,151.436 59.393,151.758 59.516 C 152.080 59.640,152.344 59.552,152.344 59.321 C 152.344 59.090,152.607 59.002,152.930 59.126 C 153.252 59.249,153.516 59.161,153.516 58.930 C 153.516 58.699,153.768 58.607,154.076 58.725 C 154.385 58.844,154.700 58.751,154.777 58.520 C 154.854 58.288,155.464 58.079,156.131 58.053 C 156.799 58.028,157.247 57.848,157.127 57.653 C 157.007 57.458,157.288 57.398,157.751 57.519 C 158.215 57.640,158.594 57.560,158.594 57.340 C 158.594 57.120,158.946 57.032,159.376 57.145 C 159.863 57.272,160.062 57.194,159.903 56.938 C 159.740 56.675,160.016 56.597,160.672 56.723 C 161.298 56.843,161.601 56.767,161.454 56.528 C 161.306 56.288,161.609 56.213,162.235 56.332 C 162.861 56.452,163.164 56.376,163.016 56.137 C 162.868 55.897,163.175 55.823,163.809 55.944 C 164.378 56.053,164.844 55.971,164.844 55.763 C 164.844 55.554,165.282 55.494,165.820 55.629 C 166.429 55.782,166.797 55.709,166.797 55.434 C 166.797 55.159,167.164 55.086,167.773 55.239 C 168.383 55.391,168.750 55.318,168.750 55.043 C 168.750 54.769,169.117 54.695,169.727 54.848 C 170.321 54.997,170.703 54.926,170.703 54.667 C 170.703 54.433,171.099 54.292,171.582 54.355 C 172.065 54.417,172.691 54.325,172.971 54.150 C 173.252 53.976,173.911 53.940,174.436 54.072 C 175.013 54.217,175.391 54.143,175.391 53.884 C 175.391 53.649,175.874 53.495,176.465 53.542 C 177.056 53.589,177.852 53.494,178.235 53.330 C 178.617 53.166,179.452 53.137,180.090 53.264 C 180.796 53.405,181.250 53.333,181.250 53.079 C 181.250 52.828,181.988 52.703,183.105 52.764 C 184.126 52.820,185.282 52.724,185.675 52.551 C 186.068 52.378,187.481 52.338,188.814 52.463 C 190.147 52.587,191.495 52.521,191.810 52.316 C 192.140 52.100,194.615 52.021,197.656 52.128 C 200.557 52.230,204.274 52.308,205.917 52.301 M337.484 61.426 C 338.441 62.446,339.276 63.281,339.339 63.281 C 339.632 63.281,339.322 62.931,337.598 61.312 L 335.742 59.570 337.484 61.426 M342.689 66.992 C 343.838 68.493,343.806 68.478,341.865 66.616 C 340.753 65.550,339.844 64.512,339.844 64.310 C 339.844 63.794,341.268 65.137,342.689 66.992 M52.559 67.494 L 50.663 69.336 52.347 67.283 C 53.274 66.154,54.127 65.325,54.243 65.441 C 54.359 65.557,53.601 66.481,52.559 67.494 M45.504 75.955 C 44.089 77.683,43.187 78.441,44.216 77.039 C 45.958 74.665,46.644 73.858,46.793 74.007 C 46.886 74.100,46.306 74.977,45.504 75.955 M350.048 75.506 C 350.753 76.536,351.595 77.591,351.919 77.850 C 352.606 78.398,351.285 76.505,349.793 74.805 C 349.028 73.932,349.093 74.111,350.048 75.506 M42.189 79.100 C 41.685 79.636,41.347 80.140,41.437 80.220 C 41.528 80.300,42.010 79.862,42.510 79.245 C 43.629 77.866,43.432 77.777,42.189 79.100 M356.685 84.570 C 358.728 87.426,360.058 88.965,359.132 87.402 C 358.494 86.325,354.670 81.250,354.496 81.250 C 354.394 81.250,355.379 82.744,356.685 84.570 M365.029 97.363 C 365.586 98.276,367.020 100.737,368.218 102.832 C 370.291 106.459,371.459 108.064,370.069 105.375 C 368.857 103.032,364.426 95.703,364.221 95.703 C 364.110 95.703,364.473 96.450,365.029 97.363 M25.271 105.566 C 22.900 109.944,20.930 113.952,21.383 113.477 C 21.871 112.965,27.406 102.344,27.186 102.344 C 27.093 102.344,26.231 103.794,25.271 105.566 M373.456 112.936 C 373.429 113.288,376.973 120.703,377.168 120.703 C 377.259 120.703,376.924 119.780,376.423 118.652 C 375.290 116.100,373.480 112.614,373.456 112.936 M20.187 115.448 C 19.270 117.372,19.399 117.700,20.358 115.881 C 20.794 115.055,21.081 114.310,20.997 114.226 C 20.912 114.141,20.548 114.691,20.187 115.448 M17.642 121.696 C 16.987 123.133,17.112 123.439,17.820 122.133 C 18.150 121.524,18.347 120.952,18.258 120.862 C 18.169 120.773,17.891 121.148,17.642 121.696 M16.068 125.443 C 15.605 126.556,15.291 127.531,15.370 127.610 C 15.449 127.688,15.892 126.842,16.354 125.729 C 16.817 124.616,17.131 123.641,17.052 123.562 C 16.973 123.484,16.530 124.330,16.068 125.443 M13.330 132.666 C 12.437 135.175,11.768 137.289,11.844 137.365 C 11.919 137.440,12.726 135.463,13.635 132.971 C 14.545 130.479,15.214 128.365,15.121 128.272 C 15.029 128.180,14.223 130.157,13.330 132.666 M382.541 135.641 C 382.675 136.015,383.249 137.860,383.817 139.742 C 384.384 141.624,384.999 143.324,385.182 143.519 C 385.365 143.715,384.923 141.987,384.199 139.680 C 383.474 137.373,382.750 135.368,382.590 135.223 C 382.429 135.079,382.407 135.267,382.541 135.641 M385.194 144.141 C 385.180 144.248,385.417 145.127,385.722 146.094 C 386.027 147.061,386.280 147.500,386.284 147.070 C 386.292 146.390,385.262 143.624,385.194 144.141 M386.328 148.194 C 386.328 148.903,387.643 153.750,387.918 154.055 C 388.088 154.245,387.873 153.014,387.440 151.321 C 386.731 148.551,386.328 147.419,386.328 148.194 M7.031 155.165 C 7.031 155.285,6.680 157.091,6.250 159.180 C 5.820 161.268,5.482 163.353,5.499 163.813 C 5.516 164.272,5.951 162.549,6.466 159.983 C 6.980 157.418,7.318 155.235,7.216 155.133 C 7.115 155.031,7.031 155.046,7.031 155.165 M388.287 156.478 C 388.291 156.890,388.472 157.490,388.690 157.813 C 388.979 158.240,389.016 158.082,388.824 157.227 C 388.503 155.790,388.279 155.478,388.287 156.478 M4.769 167.578 C 4.511 169.189,4.216 171.563,4.114 172.852 C 4.013 174.141,4.272 173.086,4.691 170.508 C 5.110 167.930,5.405 165.557,5.346 165.234 C 5.288 164.912,5.028 165.967,4.769 167.578 M3.314 179.432 C 3.162 181.255,3.117 182.981,3.213 183.268 C 3.309 183.555,3.512 182.142,3.664 180.128 C 3.817 178.115,3.862 176.389,3.766 176.292 C 3.669 176.195,3.466 177.608,3.314 179.432 M391.925 184.180 C 391.927 185.684,391.997 186.251,392.082 185.441 C 392.167 184.630,392.165 183.400,392.079 182.706 C 391.993 182.013,391.923 182.676,391.925 184.180 M2.859 189.063 C 2.859 190.459,2.930 191.030,3.017 190.332 C 3.104 189.634,3.104 188.491,3.017 187.793 C 2.930 187.095,2.859 187.666,2.859 189.063 M392.319 192.188 C 392.319 193.799,392.388 194.458,392.472 193.652 C 392.556 192.847,392.556 191.528,392.472 190.723 C 392.388 189.917,392.319 190.576,392.319 192.188 M2.873 196.289 C 2.872 198.223,2.938 199.063,3.020 198.156 C 3.102 197.250,3.103 195.668,3.022 194.641 C 2.941 193.614,2.874 194.355,2.873 196.289 M2.859 203.516 C 2.859 204.912,2.930 205.483,3.017 204.785 C 3.104 204.087,3.104 202.944,3.017 202.246 C 2.930 201.548,2.859 202.119,2.859 203.516 M3.170 211.207 C 3.145 212.323,3.260 213.319,3.425 213.421 C 3.590 213.523,3.669 212.874,3.600 211.979 C 3.397 209.350,3.219 209.030,3.170 211.207 M3.563 214.860 C 3.506 216.054,4.668 225.110,4.909 225.351 C 5.177 225.620,5.061 224.377,4.311 218.945 C 3.926 216.152,3.589 214.314,3.563 214.860 M5.508 229.134 C 5.529 229.761,5.696 230.713,5.879 231.250 C 6.102 231.909,6.137 231.591,5.985 230.273 C 5.731 228.076,5.448 227.401,5.508 229.134 M6.704 235.156 C 6.701 236.103,7.706 239.652,7.755 238.867 C 7.768 238.652,7.538 237.510,7.243 236.328 C 6.948 235.146,6.706 234.619,6.704 235.156 M11.784 255.489 C 12.013 256.144,12.272 256.608,12.361 256.519 C 12.554 256.326,11.817 254.297,11.553 254.297 C 11.452 254.297,11.556 254.833,11.784 255.489 M12.555 257.422 C 12.555 257.744,12.706 258.359,12.891 258.789 C 13.102 259.281,13.226 259.354,13.226 258.984 C 13.226 258.662,13.075 258.047,12.891 257.617 C 12.679 257.125,12.555 257.053,12.555 257.422 M13.365 260.156 C 14.381 263.021,16.906 269.161,17.021 269.046 C 17.194 268.873,13.777 260.118,13.410 259.794 C 13.271 259.671,13.250 259.834,13.365 260.156 M19.569 275.586 C 19.569 275.801,20.167 277.119,20.898 278.516 C 21.630 279.912,22.228 280.879,22.228 280.664 C 22.228 280.449,21.630 279.131,20.898 277.734 C 20.167 276.338,19.569 275.371,19.569 275.586 M23.438 283.391 C 23.438 283.832,26.948 290.234,27.189 290.234 C 27.297 290.234,26.556 288.696,25.542 286.816 C 23.516 283.058,23.438 282.930,23.438 283.391 M33.750 300.142 C 34.975 302.047,35.905 303.678,35.816 303.768 C 35.645 303.939,30.859 296.621,30.859 296.188 C 30.859 295.760,31.444 296.560,33.750 300.142 M41.031 311.914 C 41.044 312.396,42.541 314.231,42.748 314.020 C 42.831 313.936,42.476 313.340,41.959 312.695 C 41.442 312.051,41.024 311.699,41.031 311.914 M43.749 315.527 C 44.260 316.226,44.739 316.797,44.814 316.797 C 45.110 316.797,44.142 315.332,43.501 314.812 C 43.079 314.469,43.174 314.742,43.749 315.527 M53.906 326.665 C 53.906 327.222,53.249 326.639,51.912 324.897 L 50.642 323.242 52.274 324.786 C 53.172 325.636,53.906 326.481,53.906 326.665 M58.984 333.008 C 59.713 333.760,60.397 334.375,60.505 334.375 C 60.612 334.375,60.104 333.760,59.375 333.008 C 58.646 332.256,57.962 331.641,57.855 331.641 C 57.747 331.641,58.256 332.256,58.984 333.008 M61.889 335.855 C 62.521 336.545,63.213 337.109,63.428 337.109 C 63.822 337.109,62.952 336.226,61.518 335.171 C 61.091 334.857,61.258 335.165,61.889 335.855 M76.563 348.789 C 77.314 349.459,78.281 350.192,78.711 350.419 C 79.141 350.646,78.877 350.288,78.125 349.625 C 77.373 348.961,76.406 348.228,75.977 347.994 C 75.547 347.761,75.811 348.119,76.563 348.789 M99.609 364.473 C 100.627 365.167,102.344 366.042,102.344 365.869 C 102.344 365.652,99.648 364.061,99.294 364.068 C 99.145 364.072,99.287 364.254,99.609 364.473 M102.930 366.299 C 103.145 366.504,104.023 367.067,104.883 367.549 C 105.742 368.032,106.094 368.134,105.664 367.777 C 104.791 367.052,102.317 365.714,102.930 366.299 M116.406 373.242 C 116.943 373.549,117.559 373.800,117.773 373.800 C 117.988 373.800,117.725 373.549,117.188 373.242 C 116.650 372.935,116.035 372.684,115.820 372.684 C 115.605 372.684,115.869 372.935,116.406 373.242 M119.727 374.566 C 119.941 374.782,120.820 375.251,121.680 375.607 C 123.721 376.452,123.157 375.880,121.001 374.917 C 120.085 374.508,119.512 374.350,119.727 374.566 M123.470 376.326 C 123.801 376.640,126.563 377.688,126.563 377.499 C 126.563 377.392,125.953 377.049,125.208 376.738 C 123.896 376.190,123.136 376.010,123.470 376.326 M127.516 377.908 C 127.933 378.242,128.548 378.502,128.883 378.485 C 129.409 378.458,129.412 378.424,128.906 378.237 C 128.584 378.117,127.969 377.858,127.539 377.660 C 126.770 377.306,126.770 377.310,127.516 377.908 M145.117 383.805 C 146.487 384.332,151.253 385.479,150.953 385.210 C 150.516 384.819,146.089 383.580,145.287 383.625 C 144.979 383.642,144.902 383.723,145.117 383.805 M153.320 385.938 C 153.750 386.122,154.365 386.273,154.688 386.273 C 155.057 386.273,154.985 386.149,154.492 385.938 C 154.063 385.753,153.447 385.602,153.125 385.602 C 152.756 385.602,152.828 385.726,153.320 385.938 M158.670 386.896 C 159.035 387.300,163.706 388.263,163.473 387.886 C 163.373 387.723,162.475 387.468,161.478 387.318 C 160.481 387.169,159.381 386.945,159.032 386.820 C 158.684 386.696,158.521 386.730,158.670 386.896 M171.191 389.332 C 171.567 389.430,172.183 389.430,172.559 389.332 C 172.935 389.234,172.627 389.153,171.875 389.153 C 171.123 389.153,170.815 389.234,171.191 389.332 " stroke="none" fill="#04a453" fill-rule="evenodd"></path><path id="path3" d="M149.805 7.310 C 149.375 7.413,148.870 7.643,148.683 7.820 C 148.496 7.996,149.108 7.969,150.042 7.759 C 150.977 7.549,152.053 7.459,152.434 7.559 C 152.815 7.658,153.028 7.580,152.907 7.385 C 152.681 7.019,151.168 6.982,149.805 7.310 M242.773 7.273 C 244.926 7.870,246.549 8.112,246.223 7.785 C 246.027 7.590,244.995 7.345,243.930 7.243 C 242.864 7.140,242.344 7.153,242.773 7.273 M121.657 17.014 C 120.911 17.612,120.911 17.615,121.680 17.262 C 122.109 17.064,122.725 16.805,123.047 16.685 C 123.553 16.498,123.550 16.464,123.024 16.437 C 122.689 16.420,122.074 16.680,121.657 17.014 M272.070 16.797 C 272.500 16.982,273.115 17.133,273.438 17.133 C 273.807 17.133,273.735 17.008,273.242 16.797 C 272.813 16.612,272.197 16.461,271.875 16.461 C 271.506 16.461,271.578 16.585,272.070 16.797 M194.629 52.243 C 196.079 52.318,198.452 52.318,199.902 52.243 C 201.353 52.168,200.166 52.106,197.266 52.106 C 194.365 52.106,193.179 52.168,194.629 52.243 M186.628 52.627 C 187.330 52.714,188.385 52.712,188.972 52.623 C 189.559 52.534,188.984 52.463,187.695 52.465 C 186.406 52.467,185.926 52.540,186.628 52.627 M205.769 52.627 C 206.471 52.714,207.525 52.712,208.112 52.623 C 208.699 52.534,208.125 52.463,206.836 52.465 C 205.547 52.467,205.067 52.540,205.769 52.627 M181.934 53.010 C 182.417 53.103,183.208 53.103,183.691 53.010 C 184.175 52.917,183.779 52.841,182.813 52.841 C 181.846 52.841,181.450 52.917,181.934 53.010 M210.840 53.010 C 211.323 53.103,212.114 53.103,212.598 53.010 C 213.081 52.917,212.686 52.841,211.719 52.841 C 210.752 52.841,210.356 52.917,210.840 53.010 M178.613 53.394 C 178.989 53.493,179.604 53.493,179.980 53.394 C 180.356 53.296,180.049 53.216,179.297 53.216 C 178.545 53.216,178.237 53.296,178.613 53.394 M214.551 53.394 C 214.927 53.493,215.542 53.493,215.918 53.394 C 216.294 53.296,215.986 53.216,215.234 53.216 C 214.482 53.216,214.175 53.296,214.551 53.394 M160.744 56.550 C 159.455 56.887,158.576 57.217,158.791 57.283 C 159.005 57.349,160.410 57.072,161.914 56.666 C 163.418 56.261,164.297 55.931,163.867 55.933 C 163.438 55.935,162.032 56.213,160.744 56.550 M232.617 56.666 C 234.121 57.072,235.522 57.350,235.730 57.286 C 236.169 57.151,231.145 55.842,230.388 55.895 C 230.110 55.914,231.113 56.261,232.617 56.666 M155.859 58.008 C 155.107 58.297,154.756 58.534,155.078 58.534 C 155.400 58.534,156.279 58.297,157.031 58.008 C 157.783 57.718,158.135 57.481,157.813 57.481 C 157.490 57.481,156.611 57.718,155.859 58.008 M236.914 57.813 C 237.344 57.997,237.959 58.148,238.281 58.148 C 238.651 58.148,238.578 58.024,238.086 57.813 C 237.656 57.628,237.041 57.477,236.719 57.477 C 236.349 57.477,236.422 57.601,236.914 57.813 M241.406 59.180 C 243.190 59.867,243.891 59.856,242.383 59.166 C 241.738 58.870,240.947 58.634,240.625 58.641 C 240.303 58.648,240.654 58.890,241.406 59.180 M147.852 60.756 C 146.875 61.226,146.842 61.281,147.656 61.082 C 148.763 60.811,150.007 60.177,149.414 60.186 C 149.199 60.189,148.496 60.445,147.852 60.756 M57.031 61.652 C 56.147 62.515,56.135 62.563,56.912 62.160 C 57.383 61.915,57.884 61.528,58.025 61.300 C 58.506 60.522,58.010 60.698,57.031 61.652 M132.715 67.211 C 130.620 68.277,128.906 69.236,128.906 69.343 C 128.906 69.518,136.680 65.752,137.077 65.385 C 137.661 64.845,136.001 65.540,132.715 67.211 M264.063 68.539 C 264.063 68.646,264.766 69.093,265.625 69.531 C 266.484 69.970,267.188 70.240,267.188 70.133 C 267.188 70.026,266.484 69.579,265.625 69.141 C 264.766 68.702,264.063 68.431,264.063 68.539 M119.629 74.654 C 118.297 75.507,117.867 76.080,119.043 75.433 C 119.939 74.940,121.343 73.855,121.094 73.847 C 120.986 73.844,120.327 74.207,119.629 74.654 M276.172 75.533 C 276.172 75.640,276.699 76.104,277.344 76.563 C 277.988 77.021,278.516 77.309,278.516 77.202 C 278.516 77.094,277.988 76.631,277.344 76.172 C 276.699 75.713,276.172 75.425,276.172 75.533 M116.113 76.992 C 115.200 77.639,114.453 78.255,114.453 78.360 C 114.453 78.466,115.244 78.009,116.211 77.344 C 117.178 76.679,117.969 76.055,117.969 75.958 C 117.969 75.689,117.895 75.730,116.113 76.992 M112.485 79.716 L 111.133 80.916 112.598 79.865 C 113.892 78.936,114.313 78.516,113.950 78.516 C 113.888 78.516,113.229 79.056,112.485 79.716 M286.914 83.788 C 287.773 84.581,289.355 85.934,290.430 86.793 C 292.336 88.320,292.345 88.322,290.820 86.915 C 289.961 86.122,288.379 84.770,287.305 83.910 C 285.398 82.384,285.389 82.381,286.914 83.788 M101.739 88.379 L 100.195 90.039 101.855 88.495 C 103.399 87.059,103.695 86.719,103.400 86.719 C 103.336 86.719,102.589 87.466,101.739 88.379 M295.313 91.211 C 296.041 91.963,296.726 92.578,296.833 92.578 C 296.940 92.578,296.432 91.963,295.703 91.211 C 294.974 90.459,294.290 89.844,294.183 89.844 C 294.075 89.844,294.584 90.459,295.313 91.211 M95.306 94.434 L 91.211 98.633 95.410 94.538 C 97.720 92.286,99.609 90.397,99.609 90.339 C 99.609 90.057,99.109 90.533,95.306 94.434 M88.770 101.334 C 87.707 102.497,86.265 104.211,85.565 105.143 C 84.215 106.941,84.480 106.666,88.734 101.855 C 90.016 100.405,90.984 99.219,90.884 99.219 C 90.785 99.219,89.833 100.171,88.770 101.334 M370.859 108.691 C 370.704 108.960,370.721 109.051,370.895 108.893 C 371.069 108.735,371.440 108.911,371.719 109.283 C 372.178 109.896,372.206 109.877,372.005 109.082 C 371.760 108.107,371.288 107.946,370.859 108.691 M312.267 109.473 C 312.807 109.956,313.564 110.711,313.949 111.151 C 314.334 111.591,314.481 111.679,314.277 111.347 C 313.649 110.323,311.982 108.594,311.624 108.594 C 311.437 108.594,311.727 108.989,312.267 109.473 M79.297 113.281 C 78.838 113.926,78.550 114.453,78.658 114.453 C 78.765 114.453,79.229 113.926,79.688 113.281 C 80.146 112.637,80.434 112.109,80.327 112.109 C 80.219 112.109,79.756 112.637,79.297 113.281 M315.625 113.672 C 316.084 114.316,316.547 114.844,316.655 114.844 C 316.762 114.844,316.475 114.316,316.016 113.672 C 315.557 113.027,315.093 112.500,314.986 112.500 C 314.878 112.500,315.166 113.027,315.625 113.672 M320.262 120.508 C 320.473 120.938,320.932 121.641,321.282 122.070 L 321.918 122.852 321.535 122.070 C 321.324 121.641,320.865 120.938,320.515 120.508 L 319.879 119.727 320.262 120.508 M70.313 127.734 C 69.874 128.594,69.603 129.297,69.711 129.297 C 69.818 129.297,70.265 128.594,70.703 127.734 C 71.142 126.875,71.412 126.172,71.305 126.172 C 71.198 126.172,70.751 126.875,70.313 127.734 M324.609 128.125 C 325.048 128.984,325.494 129.688,325.602 129.688 C 325.709 129.688,325.438 128.984,325.000 128.125 C 324.562 127.266,324.115 126.563,324.008 126.563 C 323.900 126.563,324.171 127.266,324.609 128.125 M380.854 130.450 C 381.059 131.163,381.333 131.854,381.465 131.986 C 381.832 132.353,381.195 129.933,380.816 129.519 C 380.632 129.318,380.650 129.738,380.854 130.450 M328.939 136.523 C 328.939 136.738,329.276 137.529,329.688 138.281 C 330.099 139.033,330.436 139.473,330.436 139.258 C 330.436 139.043,330.099 138.252,329.688 137.500 C 329.276 136.748,328.939 136.309,328.939 136.523 M330.496 140.039 C 330.496 140.254,330.748 140.869,331.055 141.406 C 331.362 141.943,331.613 142.207,331.613 141.992 C 331.613 141.777,331.362 141.162,331.055 140.625 C 330.748 140.088,330.496 139.824,330.496 140.039 M10.019 142.874 C 9.919 143.037,9.732 143.872,9.605 144.730 C 9.345 146.483,9.533 146.223,10.102 144.043 C 10.462 142.661,10.431 142.209,10.019 142.874 M61.372 147.700 C 61.131 148.390,61.002 149.023,61.086 149.107 C 61.169 149.190,61.435 148.694,61.675 148.003 C 61.916 147.313,62.045 146.680,61.961 146.596 C 61.877 146.513,61.612 147.009,61.372 147.700 M59.020 154.723 C 58.756 155.605,58.612 156.398,58.699 156.486 C 58.787 156.574,59.075 155.924,59.339 155.043 C 59.604 154.161,59.748 153.368,59.660 153.280 C 59.572 153.192,59.284 153.841,59.020 154.723 M338.359 163.867 C 338.359 164.297,338.500 165.088,338.672 165.625 C 338.920 166.398,338.985 166.439,338.985 165.820 C 338.985 165.391,338.844 164.600,338.672 164.063 C 338.424 163.289,338.359 163.249,338.359 163.867 M390.102 166.842 C 390.230 167.999,390.460 169.084,390.612 169.253 C 390.764 169.422,390.755 168.571,390.590 167.361 C 390.205 164.519,389.795 164.084,390.102 166.842 M339.148 167.383 C 339.152 167.813,339.289 168.691,339.453 169.336 C 339.721 170.389,339.752 170.408,339.759 169.531 C 339.763 168.994,339.625 168.115,339.453 167.578 C 339.208 166.813,339.142 166.771,339.148 167.383 M340.325 173.828 C 340.325 174.580,340.405 174.888,340.504 174.512 C 340.602 174.136,340.602 173.521,340.504 173.145 C 340.405 172.769,340.325 173.076,340.325 173.828 M340.716 176.563 C 340.716 177.314,340.796 177.622,340.894 177.246 C 340.993 176.870,340.993 176.255,340.894 175.879 C 340.796 175.503,340.716 175.811,340.716 176.563 M341.114 179.492 C 341.118 180.352,341.198 180.657,341.292 180.171 C 341.385 179.685,341.382 178.982,341.284 178.609 C 341.186 178.235,341.110 178.633,341.114 179.492 M54.005 180.273 C 54.009 181.133,54.089 181.438,54.183 180.952 C 54.276 180.467,54.272 179.763,54.175 179.390 C 54.077 179.017,54.000 179.414,54.005 180.273 M341.523 183.203 C 341.523 184.385,341.597 184.868,341.686 184.277 C 341.776 183.687,341.776 182.720,341.686 182.129 C 341.597 181.538,341.523 182.021,341.523 183.203 M53.627 184.180 C 53.630 185.254,53.706 185.647,53.796 185.053 C 53.886 184.459,53.883 183.581,53.791 183.100 C 53.698 182.620,53.624 183.105,53.627 184.180 M341.938 189.453 C 341.938 191.494,342.004 192.329,342.084 191.309 C 342.164 190.288,342.164 188.618,342.084 187.598 C 342.004 186.577,341.938 187.412,341.938 189.453 M53.293 196.289 C 53.294 201.445,53.349 203.501,53.417 200.857 C 53.485 198.212,53.484 193.994,53.417 191.482 C 53.349 188.969,53.293 191.133,53.293 196.289 M2.581 192.805 C 2.241 193.692,2.288 199.529,2.637 199.743 C 2.798 199.843,2.930 198.183,2.930 196.055 C 2.930 191.874,2.932 191.891,2.581 192.805 M392.187 292.656 C 392.080 346.518,392.124 390.454,392.286 390.292 C 392.447 390.131,392.535 346.062,392.481 292.363 L 392.383 194.727 392.187 292.656 M53.627 208.398 C 53.630 209.473,53.706 209.866,53.796 209.272 C 53.886 208.678,53.883 207.799,53.791 207.319 C 53.698 206.838,53.624 207.324,53.627 208.398 M54.005 212.305 C 54.009 213.164,54.089 213.470,54.183 212.984 C 54.276 212.498,54.272 211.795,54.175 211.421 C 54.077 211.048,54.000 211.445,54.005 212.305 M54.388 215.625 C 54.388 216.377,54.468 216.685,54.566 216.309 C 54.664 215.933,54.664 215.317,54.566 214.941 C 54.468 214.565,54.388 214.873,54.388 215.625 M57.867 233.594 C 57.867 233.916,58.018 234.531,58.203 234.961 C 58.415 235.453,58.539 235.526,58.539 235.156 C 58.539 234.834,58.388 234.219,58.203 233.789 C 57.992 233.297,57.867 233.224,57.867 233.594 M58.649 236.328 C 58.649 236.650,58.800 237.266,58.984 237.695 C 59.196 238.188,59.320 238.260,59.320 237.891 C 59.320 237.568,59.169 236.953,58.984 236.523 C 58.773 236.031,58.649 235.959,58.649 236.328 M59.813 240.234 C 59.806 240.557,60.042 241.348,60.337 241.992 C 61.028 243.501,61.038 242.799,60.352 241.016 C 60.062 240.264,59.820 239.912,59.813 240.234 M61.552 245.313 C 61.696 245.850,61.976 246.553,62.175 246.875 C 62.427 247.282,62.458 247.163,62.276 246.484 C 62.132 245.947,61.852 245.244,61.653 244.922 C 61.401 244.515,61.370 244.634,61.552 245.313 M9.375 247.373 C 9.375 247.933,9.558 248.504,9.781 248.642 C 10.048 248.807,10.096 248.513,9.922 247.787 C 9.562 246.290,9.375 246.148,9.375 247.373 M66.797 257.951 C 66.797 258.376,69.908 264.453,70.126 264.453 C 70.301 264.453,67.313 258.243,66.947 257.845 C 66.864 257.756,66.797 257.803,66.797 257.951 M71.289 266.797 C 71.622 267.441,71.983 267.969,72.090 267.969 C 72.198 267.969,72.013 267.441,71.680 266.797 C 71.346 266.152,70.986 265.625,70.878 265.625 C 70.771 265.625,70.956 266.152,71.289 266.797 M18.762 273.828 C 18.762 274.150,18.932 274.678,19.141 275.000 C 19.477 275.521,19.519 275.521,19.519 275.000 C 19.519 274.678,19.349 274.150,19.141 273.828 C 18.804 273.307,18.762 273.307,18.762 273.828 M76.022 274.707 C 76.842 276.105,79.351 279.688,79.510 279.688 C 79.611 279.688,78.876 278.457,77.875 276.953 C 76.875 275.449,75.985 274.219,75.896 274.219 C 75.808 274.219,75.864 274.438,76.022 274.707 M89.258 292.188 C 90.097 293.047,90.871 293.750,90.979 293.750 C 91.086 293.750,90.488 293.047,89.648 292.188 C 88.809 291.328,88.035 290.625,87.927 290.625 C 87.820 290.625,88.419 291.328,89.258 292.188 M95.703 299.023 C 98.382 301.709,100.662 303.906,100.770 303.906 C 100.877 303.906,98.773 301.709,96.094 299.023 C 93.415 296.338,91.135 294.141,91.027 294.141 C 90.920 294.141,93.024 296.338,95.703 299.023 M102.344 305.273 C 103.073 306.025,103.757 306.641,103.864 306.641 C 103.972 306.641,103.463 306.025,102.734 305.273 C 102.006 304.521,101.321 303.906,101.214 303.906 C 101.107 303.906,101.615 304.521,102.344 305.273 M108.203 310.137 C 109.866 311.635,113.920 314.655,113.086 313.774 C 112.871 313.547,111.289 312.280,109.570 310.957 C 107.852 309.635,107.236 309.266,108.203 310.137 M116.016 315.797 C 116.016 315.904,117.290 316.845,118.848 317.888 C 122.069 320.045,123.048 320.625,122.461 320.032 C 121.845 319.410,116.016 315.579,116.016 315.797 M129.297 324.022 C 129.297 324.281,138.719 328.989,138.892 328.817 C 138.967 328.741,136.839 327.589,134.163 326.256 C 131.487 324.923,129.297 323.918,129.297 324.022 M141.016 329.883 C 141.553 330.190,142.168 330.441,142.383 330.441 C 142.598 330.441,142.334 330.190,141.797 329.883 C 141.260 329.576,140.645 329.325,140.430 329.325 C 140.215 329.325,140.479 329.576,141.016 329.883 M162.081 336.948 C 163.033 337.247,164.439 337.579,165.206 337.686 C 165.974 337.794,165.371 337.536,163.867 337.114 C 160.770 336.244,159.446 336.121,162.081 336.948 M167.578 338.281 C 168.115 338.453,168.906 338.594,169.336 338.594 C 169.955 338.594,169.914 338.529,169.141 338.281 C 168.604 338.109,167.813 337.969,167.383 337.969 C 166.764 337.969,166.805 338.034,167.578 338.281 M173.633 339.453 C 174.277 339.617,175.332 339.752,175.977 339.753 C 176.962 339.754,176.900 339.702,175.586 339.431 C 173.607 339.021,172.008 339.040,173.633 339.453 M177.832 340.113 C 178.208 340.211,178.823 340.211,179.199 340.113 C 179.575 340.015,179.268 339.934,178.516 339.934 C 177.764 339.934,177.456 340.015,177.832 340.113 M181.157 340.511 C 181.643 340.604,182.346 340.601,182.719 340.503 C 183.093 340.405,182.695 340.329,181.836 340.333 C 180.977 340.337,180.671 340.417,181.157 340.511 M185.066 340.908 C 185.768 340.995,186.822 340.993,187.409 340.904 C 187.996 340.815,187.422 340.744,186.133 340.746 C 184.844 340.748,184.363 340.821,185.066 340.908 M227.441 341.309 C 248.442 341.364,282.808 341.364,303.809 341.309 C 324.810 341.253,307.627 341.207,265.625 341.207 C 223.623 341.207,206.440 341.253,227.441 341.309 M134.201 380.451 C 134.417 380.667,135.204 380.938,135.950 381.051 C 137.326 381.261,137.066 381.095,134.970 380.428 C 134.188 380.178,133.936 380.186,134.201 380.451 M176.245 389.858 C 176.607 390.071,179.683 390.320,183.081 390.410 L 189.258 390.574 184.180 390.243 C 181.387 390.061,178.311 389.812,177.344 389.691 C 176.081 389.533,175.772 389.580,176.245 389.858 M241.731 390.918 C 269.302 390.973,314.302 390.973,341.731 390.918 C 369.160 390.863,346.602 390.817,291.602 390.817 C 236.602 390.817,214.160 390.863,241.731 390.918 " stroke="none" fill="#049c2e" fill-rule="evenodd"></path><path id="path4" d="M194.238 52.634 C 195.903 52.707,198.628 52.707,200.293 52.634 C 201.958 52.561,200.596 52.501,197.266 52.501 C 193.936 52.501,192.573 52.561,194.238 52.634 M185.844 53.011 C 186.330 53.104,187.033 53.101,187.407 53.003 C 187.780 52.905,187.383 52.829,186.523 52.833 C 185.664 52.837,185.358 52.917,185.844 53.011 M207.329 53.011 C 207.815 53.104,208.518 53.101,208.891 53.003 C 209.265 52.905,208.867 52.829,208.008 52.833 C 207.148 52.837,206.843 52.917,207.329 53.011 M95.305 94.824 L 91.602 98.633 95.410 94.930 C 97.505 92.893,99.219 91.179,99.219 91.121 C 99.219 90.838,98.744 91.287,95.305 94.824 M302.539 98.438 C 303.378 99.297,304.153 100.000,304.260 100.000 C 304.368 100.000,303.769 99.297,302.930 98.438 C 302.091 97.578,301.316 96.875,301.209 96.875 C 301.101 96.875,301.700 97.578,302.539 98.438 M194.238 161.207 C 194.614 161.305,195.229 161.305,195.605 161.207 C 195.981 161.109,195.674 161.028,194.922 161.028 C 194.170 161.028,193.862 161.109,194.238 161.207 M208.105 161.213 C 208.589 161.306,209.380 161.306,209.863 161.213 C 210.347 161.120,209.951 161.044,208.984 161.044 C 208.018 161.044,207.622 161.120,208.105 161.213 M189.063 161.719 C 189.063 161.934,189.326 162.109,189.648 162.109 C 189.971 162.109,190.234 161.934,190.234 161.719 C 190.234 161.504,189.971 161.328,189.648 161.328 C 189.326 161.328,189.063 161.504,189.063 161.719 M138.846 180.469 C 138.846 187.451,138.899 190.308,138.964 186.816 C 139.029 183.325,139.029 177.612,138.964 174.121 C 138.899 170.630,138.846 173.486,138.846 180.469 M249.741 181.641 C 249.741 183.252,249.810 183.911,249.894 183.105 C 249.978 182.300,249.978 180.981,249.894 180.176 C 249.810 179.370,249.741 180.029,249.741 181.641 M341.106 183.203 C 341.106 183.955,341.187 184.263,341.285 183.887 C 341.383 183.511,341.383 182.896,341.285 182.520 C 341.187 182.144,341.106 182.451,341.106 183.203 M190.723 183.874 C 191.313 183.963,192.280 183.963,192.871 183.874 C 193.462 183.784,192.979 183.711,191.797 183.711 C 190.615 183.711,190.132 183.784,190.723 183.874 M341.527 188.867 C 341.529 190.156,341.602 190.637,341.689 189.934 C 341.776 189.232,341.774 188.178,341.685 187.591 C 341.596 187.004,341.525 187.578,341.527 188.867 M53.633 189.063 C 53.633 190.244,53.706 190.728,53.795 190.137 C 53.885 189.546,53.885 188.579,53.795 187.988 C 53.706 187.397,53.633 187.881,53.633 189.063 M53.633 203.516 C 53.633 204.697,53.706 205.181,53.795 204.590 C 53.885 203.999,53.885 203.032,53.795 202.441 C 53.706 201.851,53.633 202.334,53.633 203.516 M167.254 222.559 C 183.942 222.615,211.364 222.615,228.192 222.559 C 245.020 222.502,231.367 222.456,197.852 222.456 C 164.336 222.456,150.567 222.502,167.254 222.559 M205.536 256.152 C 218.142 256.209,238.884 256.209,251.630 256.152 C 264.376 256.095,254.063 256.048,228.711 256.048 C 203.359 256.048,192.931 256.095,205.536 256.152 M67.215 258.008 C 67.215 258.223,67.466 258.838,67.773 259.375 C 68.080 259.912,68.332 260.176,68.332 259.961 C 68.332 259.746,68.080 259.131,67.773 258.594 C 67.466 258.057,67.215 257.793,67.215 258.008 M95.898 298.828 C 98.039 300.977,99.878 302.734,99.985 302.734 C 100.093 302.734,98.429 300.977,96.289 298.828 C 94.149 296.680,92.310 294.922,92.202 294.922 C 92.095 294.922,93.758 296.680,95.898 298.828 M185.259 340.515 C 185.853 340.604,186.732 340.602,187.212 340.509 C 187.693 340.417,187.207 340.343,186.133 340.346 C 185.059 340.349,184.666 340.425,185.259 340.515 M228.027 340.918 C 248.921 340.974,283.110 340.974,304.004 340.918 C 324.897 340.862,307.803 340.816,266.016 340.816 C 224.229 340.816,207.134 340.862,228.027 340.918 " stroke="none" fill="#6dbc87" fill-rule="evenodd"></path></g></svg>